<svg id="Layer_1" data-name="Layer 1" xmlns="http://www.w3.org/2000/svg" viewBox="0 0 300 300"><defs><style>.cls-1,.cls-2,.cls-3{fill:none;stroke-width:3.75px;}.cls-1,.cls-2{stroke:#0097dc;}.cls-1{stroke-miterlimit:10;}.cls-2,.cls-3{stroke-linejoin:round;}.cls-3{stroke:#231f20;}</style></defs><title>blockfreightArtboard 1 copy 2</title><path class="cls-1" d="M118.9,132.82V111.17a8.58,8.58,0,0,1,8.56-8.56h0a8.58,8.58,0,0,1,8.56,8.56V133"/><path class="cls-1" d="M136,133V111.17a8.58,8.58,0,0,1,8.56-8.56h0a8.58,8.58,0,0,1,8.56,8.56V133"/><path class="cls-1" d="M153.14,133.6V111.17a8.58,8.58,0,0,1,8.56-8.56h0a8.58,8.58,0,0,1,8.56,8.56v35.34a8.58,8.58,0,0,1-8.56,8.56h0a8.59,8.59,0,0,1-8.44-7.15"/><rect class="cls-1" x="170.26" y="102.61" width="17.12" height="52.46" rx="5.13" ry="5.13"/><path class="cls-2" d="M152.42,176.36c0-20.11-24.25-23.57-24.25-23.57H143a13,13,0,0,0,13-13v-3.51a3.49,3.49,0,0,0-3.49-3.49H118.16a9.53,9.53,0,0,0-8.66,5.55l-4.7,10.21a14.18,14.18,0,0,0-1.3,5.93v2.21a14.18,14.18,0,0,0,3.08,8.82l13.79,17.35a9,9,0,0,1,2,5.6v5.24"/><path class="cls-1" d="M187.37,146.51v21a14,14,0,0,1-2.53,8L180,182.36A11.57,11.57,0,0,0,178,189v4.73"/><rect class="cls-2" x="118.9" y="193.73" width="63.76" height="24.87"/><path class="cls-3" d="M65.33,123.35a86.41,86.41,0,0,1,9.05-21.85l-15-16.08A109.43,109.43,0,0,1,89.8,55l16.08,15a86.41,86.41,0,0,1,21.85-9.05h0l.73-22a110,110,0,0,1,43.08,0l.73,22A86.71,86.71,0,0,1,194.12,70l16.08-15a109.27,109.27,0,0,1,30.47,30.47l-15,16.08a86.41,86.41,0,0,1,9.05,21.85h0l22,.73a110,110,0,0,1,0,43.08l-22,.73h0a86.41,86.41,0,0,1-9.05,21.85l15,16.08a109.21,109.21,0,0,1-30.46,30.46l-16.08-15a86.72,86.72,0,0,1-21.85,9.06l-.73,22a110,110,0,0,1-43.08,0l-.73-22h0a86.15,86.15,0,0,1-21.85-9.06l-16.08,15a109.21,109.21,0,0,1-30.46-30.47l15-16.07a86.41,86.41,0,0,1-9.05-21.85h0l-22-.73a110,110,0,0,1,0-43.08l22-.73Z"/><path class="cls-3" d="M111.38,193.73A61.7,61.7,0,1,1,190.69,192"/></svg>