<svg id="Layer_1" data-name="Layer 1" xmlns="http://www.w3.org/2000/svg" viewBox="0 0 300 300"><defs><style>.cls-1{font-size:12px;fill:#fff;font-family:Helvetica-Bold, Helvetica;font-weight:700;}.cls-2{letter-spacing:-0.04em;}.cls-3{fill:#231f20;}.cls-4{fill:#0097dc;}</style></defs><title>blockfreightArtboard 1 copy 6</title><text class="cls-1" transform="translate(86.65 -4.38)"><tspan class="cls-2">A</tspan><tspan x="8.23" y="0" xml:space="preserve"> legacy system</tspan></text><path class="cls-3" d="M186.37,84.47H104.23c-7.4,0-13.41-5.29-13.41-11.79V66.47h109v6.21C199.78,79.18,193.76,84.47,186.37,84.47ZM95.47,71.12v1.55c0,3.93,3.93,7.13,8.76,7.13h82.14c4.83,0,8.76-3.2,8.76-7.13V71.12Z"/><path class="cls-4" d="M158.84,122.32c-6.28,0-12.35-2.26-18.61-4.59l-3.42-1.26a19.12,19.12,0,0,0-19.94,4.25,2.33,2.33,0,1,1-3.42-3.16,23.58,23.58,0,0,1,24.95-5.47l3.46,1.28c11.59,4.31,20.75,7.72,32-2a2.33,2.33,0,1,1,3,3.53C170.52,120.42,164.59,122.32,158.84,122.32Z"/><path class="cls-4" d="M108.75,221a2.33,2.33,0,0,1-1.43-4.17c1-.81,25.77-19.91,38.63-19.91s36.79,18.32,37.8,19.1a2.33,2.33,0,0,1-2.84,3.69c-6.55-5-25.59-18.13-35-18.13s-29,13.67-35.78,18.93A2.32,2.32,0,0,1,108.75,221Z"/><path class="cls-4" d="M145.54,191.43a2.33,2.33,0,0,1-2.33-2.33v-4.49a2.33,2.33,0,1,1,4.66,0v4.49A2.33,2.33,0,0,1,145.54,191.43Z"/><path class="cls-4" d="M145.54,174.22a2.33,2.33,0,0,1-2.33-2.33v-4.49a2.33,2.33,0,1,1,4.66,0v4.49A2.33,2.33,0,0,1,145.54,174.22Z"/><path class="cls-3" d="M183.38,221.81a2.33,2.33,0,0,1-2.33-2.33V191.34c0-10.53-6.76-20.47-17.63-25.94-1.36-.68-2.87-1.36-4.76-2.12l-1-.41c-4-1.57-8.49-3.34-8.49-9.38v-4.62c0-6.75,6.48-9,11.22-10.59l1.21-.42c12.67-4.44,19.5-17.15,19.5-26.86V82.86a2.33,2.33,0,1,1,4.66,0V111c0,11.59-7.77,26-22.62,31.25l-1.24.43c-5,1.72-8.07,3-8.07,6.18v4.62c0,2.65,1.35,3.4,5.54,5l1.08.43c2,.81,3.64,1.54,5.12,2.28,12.46,6.27,20.2,17.8,20.2,30.1v28.14A2.33,2.33,0,0,1,183.38,221.81Z"/><path class="cls-3" d="M107.21,221.81a2.33,2.33,0,0,1-2.33-2.33V191.34a29.48,29.48,0,0,1,2.54-12.08c2.84-6.37,7.49-11.67,14.22-16.2a31.63,31.63,0,0,1,6.83-3.07c5.27-1.9,8.47-3.29,8.47-6.5v-4.62c0-3.15-3.22-4.57-8.52-6.53a35.5,35.5,0,0,1-6.32-2.8,36.83,36.83,0,0,1-14.64-16.3A30.49,30.49,0,0,1,104.88,111V82.86a2.33,2.33,0,1,1,4.66,0V111a25.87,25.87,0,0,0,2.19,10.37,32.21,32.21,0,0,0,12.83,14.21A31.85,31.85,0,0,0,130,138c5.15,1.9,11.56,4.27,11.56,10.89v4.62c0,6.71-6.4,9-11.55,10.88a28.15,28.15,0,0,0-5.81,2.55c-6.07,4.09-10.06,8.62-12.57,14.24a24.85,24.85,0,0,0-2.13,10.19v28.14A2.33,2.33,0,0,1,107.21,221.81Z"/><path class="cls-3" d="M199.78,235.87h-109v-6.21c0-6.5,6-11.79,13.41-11.79h82.14c7.4,0,13.41,5.29,13.41,11.79ZM95.47,231.22h99.66v-1.55c0-3.93-3.93-7.13-8.76-7.13H104.23c-4.83,0-8.76,3.2-8.76,7.13Z"/></svg>