<svg id="Layer_1" data-name="Layer 1" xmlns="http://www.w3.org/2000/svg" viewBox="0 0 300 300"><defs><style>.cls-1,.cls-2{fill:none;stroke-miterlimit:10;stroke-width:5px;}.cls-1{stroke:#0097dc;}.cls-2{stroke:#231f20;}</style></defs><title>blockfreightArtboard 1 copy 4</title><path class="cls-1" d="M188.78,119.72l-1.43.77a111.89,111.89,0,0,0-46.2,46.2h0l-38-38h0a111.88,111.88,0,0,0,46.2-46.2l.77-1.43Z"/><rect class="cls-2" x="71.01" y="142.85" width="78.92" height="33.05" rx="8.6" ry="8.6" transform="translate(145.05 -31.44) rotate(45)"/><rect class="cls-2" x="141.68" y="72.18" width="78.92" height="33.05" rx="8.6" ry="8.6" transform="translate(115.78 -102.1) rotate(45)"/><path class="cls-2" d="M175.11,138.1l73.69,73.69a10.81,10.81,0,0,1,0,15.24h0a10.81,10.81,0,0,1-15.24,0l-73.79-73.79"/><path class="cls-2" d="M117.16,110.64,105.83,99.31a10.81,10.81,0,0,1,0-15.24h0a10.81,10.81,0,0,1,15.24,0L132.41,95.4"/><path class="cls-2" d="M180.42,240.35H54.67A10.2,10.2,0,0,1,44.5,230.17h0A10.2,10.2,0,0,1,54.67,220H180.42a10.2,10.2,0,0,1,10.17,10.17h0A10.2,10.2,0,0,1,180.42,240.35Z"/></svg>