<svg id="Layer_1" data-name="Layer 1" xmlns="http://www.w3.org/2000/svg" viewBox="0 0 300 300"><defs><style>.cls-1,.cls-2{fill:none;stroke-linejoin:round;stroke-width:3.75px;}.cls-1{stroke:#231f20;}.cls-2{stroke:#0097dc;}.cls-3{fill:#0097dc;}</style></defs><title>blockfreightArtboard 1</title><rect class="cls-1" x="76.77" y="143.82" width="157.51" height="71.17" transform="translate(311.06 358.81) rotate(180)"/><path class="cls-2" d="M138,204.84H101.71a27.43,27.43,0,0,0-15.56-15.42v-20A27.37,27.37,0,0,0,101.7,154h36.5"/><path class="cls-2" d="M172.57,154h36.78a27.37,27.37,0,0,0,15.55,15.41v20a27.43,27.43,0,0,0-15.56,15.42h-36.6"/><ellipse class="cls-2" cx="155.53" cy="179.4" rx="21.3" ry="23.19"/><path class="cls-3" d="M149.26,184.33a14.51,14.51,0,0,0,6.31,1.57c2.62,0,4-1.08,4-2.73s-1.2-2.47-4.22-3.55c-4.18-1.46-6.91-3.77-6.91-7.44,0-4.3,3.59-7.58,9.53-7.58a15.41,15.41,0,0,1,6.43,1.27l-1.27,4.6a12,12,0,0,0-5.27-1.2c-2.47,0-3.66,1.12-3.66,2.43,0,1.61,1.42,2.32,4.67,3.55,4.45,1.64,6.54,4,6.54,7.51,0,4.22-3.25,7.81-10.16,7.81A16.47,16.47,0,0,1,148.1,189Z"/><polyline class="cls-1" points="234.28 218.82 234.28 226.9 76.77 226.9 76.77 218.82"/><polyline class="cls-1" points="234.28 230.73 234.28 238.81 76.77 238.81 76.77 230.73"/><path class="cls-1" d="M74.94,131.69a81,81,0,0,1,1.58-16l16.3-.54h0A64,64,0,0,1,99.53,99L88.39,87.1A80.88,80.88,0,0,1,111,64.54l11.91,11.14A64.23,64.23,0,0,1,139,69l.54-16.3a81.46,81.46,0,0,1,31.91,0L172,69h0a63.79,63.79,0,0,1,16.18,6.71l11.91-11.14a80.88,80.88,0,0,1,22.55,22.57L211.53,99a64,64,0,0,1,6.7,16.18h0l16.3.54a81,81,0,0,1,1.58,16"/><path class="cls-1" d="M114.41,131.68a41.12,41.12,0,1,1,82.24,0"/></svg>