<svg id="Layer_1" data-name="Layer 1" xmlns="http://www.w3.org/2000/svg" viewBox="0 0 300 300"><defs><style>.cls-1,.cls-2,.cls-3{fill:none;stroke-width:3.75px;}.cls-1,.cls-2{stroke:#231f20;}.cls-1{stroke-miterlimit:10;}.cls-2,.cls-3{stroke-linejoin:round;}.cls-3{stroke:#0097dc;}</style></defs><title>blockfreightArtboard 1 copy</title><line class="cls-1" x1="52.37" y1="144.45" x2="52.37" y2="195.61"/><line class="cls-1" x1="124.75" y1="72.8" x2="77.96" y2="99.81"/><line class="cls-1" x1="223.78" y1="100.82" x2="175.25" y2="72.8"/><line class="cls-1" x1="247.63" y1="195.61" x2="247.63" y2="144.45"/><circle class="cls-2" cx="150" cy="58.22" r="21.91"/><circle class="cls-2" cx="247.63" cy="115.02" r="21.91"/><circle class="cls-2" cx="52.37" cy="115.02" r="21.91"/><circle class="cls-2" cx="52.37" cy="224.54" r="21.91"/><circle class="cls-2" cx="247.63" cy="224.54" r="21.91"/><line class="cls-2" x1="95.79" y1="139.9" x2="77.98" y2="129.7"/><line class="cls-2" x1="223.77" y1="128.7" x2="204.21" y2="139.9"/><line class="cls-2" x1="207.25" y1="204.01" x2="223.32" y2="213.29"/><line class="cls-2" x1="77.96" y1="212.55" x2="92.63" y2="204.08"/><polygon class="cls-3" points="107.34 138 86.01 174.94 128.67 174.94 107.34 138"/><polygon class="cls-3" points="128.67 174.94 150 138 107.34 138 128.67 174.94"/><polygon class="cls-3" points="150 138 128.67 174.94 171.33 174.94 150 138"/><polygon class="cls-3" points="171.33 174.94 192.66 138 150 138 171.33 174.94"/><polygon class="cls-3" points="192.66 138 171.33 174.94 213.99 174.94 192.66 138"/><polygon class="cls-3" points="150 263.69 171.33 174.94 128.67 174.94 150 263.69"/><polygon class="cls-3" points="86.01 174.94 150 263.69 128.67 174.94 86.01 174.94"/><polygon class="cls-3" points="213.99 174.94 150 263.69 171.33 174.94 213.99 174.94"/></svg>