<svg id="Layer_1" data-name="Layer 1" xmlns="http://www.w3.org/2000/svg" viewBox="0 0 300 300"><defs><style>.cls-1,.cls-2{fill:none;stroke-linejoin:round;stroke-width:3.75px;}.cls-1{stroke:#231f20;}.cls-2{stroke:#0097dc;}</style></defs><title>blockfreightArtboard 1 copy 3</title><circle class="cls-1" cx="150" cy="145.62" r="55.14"/><circle class="cls-1" cx="150" cy="145.62" r="41.04"/><line class="cls-1" x1="150" y1="122.49" x2="150" y2="104.58"/><line class="cls-1" x1="173.13" y1="145.62" x2="191.04" y2="145.62"/><line class="cls-1" x1="150" y1="168.75" x2="150" y2="186.66"/><line class="cls-1" x1="126.87" y1="145.62" x2="108.96" y2="145.62"/><rect class="cls-1" x="129.48" y="65.16" width="41.04" height="11.61"/><rect class="cls-1" x="144.47" y="76.76" width="11.06" height="13.71"/><line class="cls-2" x1="150" y1="145.62" x2="171.38" y2="124.24"/><path class="cls-2" d="M78.4,145.62H60.78a89.56,89.56,0,0,0,1.75,17.66l18,.6h0A70.85,70.85,0,0,0,88,181.79L75.66,195a89.59,89.59,0,0,0,25,25l13.18-12.33a71.09,71.09,0,0,0,17.91,7.42l.6,18a90.19,90.19,0,0,0,35.32,0l.6-18h0a70.85,70.85,0,0,0,17.91-7.42L199.36,220a89.71,89.71,0,0,0,25-25L212,181.79a70.85,70.85,0,0,0,7.42-17.91h0l18-.6a89.56,89.56,0,0,0,1.75-17.66H222"/></svg>