<svg id="Layer_1" data-name="Layer 1" xmlns="http://www.w3.org/2000/svg" viewBox="0 0 300 300"><defs><style>.cls-1{fill:#231f20;}.cls-2{fill:#0097dc;}</style></defs><title>blockfreightArtboard 1 copy 5</title><path class="cls-1" d="M190,193.17H100.89a12.62,12.62,0,0,1-12.61-12.61v-80H66.84l78.62-57.49,78.62,57.49H202.65v80A12.62,12.62,0,0,1,190,193.17ZM85.22,94.54h9.06v86a6.62,6.62,0,0,0,6.61,6.61H190a6.62,6.62,0,0,0,6.61-6.61v-86h9.06L145.46,50.49Z"/><path class="cls-2" d="M145.74,183a45.74,45.74,0,1,1,45.73-45.74A45.79,45.79,0,0,1,145.74,183Zm0-85.47a39.74,39.74,0,1,0,39.73,39.74A39.78,39.78,0,0,0,145.74,97.56Z"/><path class="cls-2" d="M166.06,120.75a3,3,0,0,1-2.13-5.12l5.31-5.33a3,3,0,1,1,4.25,4.23l-5.31,5.33A3,3,0,0,1,166.06,120.75Z"/><path class="cls-2" d="M145.74,110.61a3,3,0,0,1-3-3v-6.73a3,3,0,1,1,6,0v6.73A3,3,0,0,1,145.74,110.61Z"/><path class="cls-2" d="M145.74,176.7a3,3,0,0,1-3-3V167a3,3,0,1,1,6,0v6.73A3,3,0,0,1,145.74,176.7Z"/><path class="cls-2" d="M182.15,140.29h-6.73a3,3,0,0,1,0-6h6.73a3,3,0,0,1,0,6Z"/><path class="cls-2" d="M116.06,140.29h-6.73a3,3,0,0,1,0-6h6.73a3,3,0,0,1,0,6Z"/><path class="cls-2" d="M120,166a3,3,0,0,1-2.12-5.12l4.76-4.76a3,3,0,0,1,4.24,4.24l-4.76,4.76A3,3,0,0,1,120,166Z"/><path class="cls-2" d="M124.75,119.3a3,3,0,0,1-2.12-.88l-4.76-4.76a3,3,0,0,1,4.24-4.24l4.76,4.76a3,3,0,0,1-2.12,5.12Z"/><path class="cls-2" d="M171.48,166a3,3,0,0,1-2.12-.88l-4.75-4.75a3,3,0,0,1,4.24-4.24l4.75,4.75a3,3,0,0,1-2.12,5.12Z"/><path class="cls-2" d="M146.51,140.29a3,3,0,0,1-2.73-1.75L129,106.4a3,3,0,0,1,5.45-2.51L149.23,136a3,3,0,0,1-2.72,4.26Z"/><path class="cls-2" d="M164.2,140.29H147.87a3,3,0,0,1,0-6H164.2a3,3,0,0,1,0,6Z"/><path class="cls-1" d="M126.23,259.94a23.15,23.15,0,1,1,23.15-23.15A23.18,23.18,0,0,1,126.23,259.94Zm0-40.31a17.15,17.15,0,1,0,17.15,17.15A17.17,17.17,0,0,0,126.23,219.63Z"/><path class="cls-1" d="M133.57,221.14a3,3,0,0,1-2.73-4.24l11.8-26a3,3,0,1,1,5.46,2.48l-11.8,26A3,3,0,0,1,133.57,221.14Z"/><path class="cls-1" d="M112.71,267.09a3,3,0,0,1-2.73-4.24l3.88-8.54a3,3,0,0,1,5.46,2.48l-3.88,8.54A3,3,0,0,1,112.71,267.09Z"/></svg>