<?xml version="1.0" encoding="UTF-8"?>
<svg width="114px" height="13px" viewBox="0 0 114 13" version="1.1" xmlns="http://www.w3.org/2000/svg" xmlns:xlink="http://www.w3.org/1999/xlink">
    <!-- Generator: Sketch 42 (36781) - http://www.bohemiancoding.com/sketch -->
    <title>A Bitcoin Company</title>
    <desc>Created with Sketch.</desc>
    <defs></defs>
    <g id="Page-1" stroke="none" stroke-width="1" fill="none" fill-rule="evenodd">
        <g id="A-Bitcoin-Company">
            <path d="M64.5693694,7.87366667 C64.5693694,7.28433039 64.6550622,6.7166694 64.8264505,6.17066667 C64.9978387,5.62466394 65.2507371,5.14366875 65.5851532,4.72766667 C65.9195692,4.31166459 66.3292228,3.9801679 66.8141261,3.73316667 C67.2990295,3.48616543 67.8549879,3.36266667 68.482018,3.36266667 C68.7579113,3.36266667 69.02126,3.38216647 69.2720721,3.42116667 C69.5228841,3.46016686 69.761152,3.53599944 69.9868829,3.64866667 L69.547964,4.66266667 C69.4141975,4.58466628 69.2574423,4.52400022 69.0776937,4.48066667 C68.897945,4.43733312 68.6659474,4.41566667 68.3816937,4.41566667 C67.972034,4.41566667 67.6041818,4.5088324 67.2781261,4.69516667 C66.9520704,4.88150093 66.6740912,5.12849846 66.4441802,5.43616667 C66.2142691,5.74383487 66.0387033,6.09916465 65.9174775,6.50216667 C65.7962516,6.90516868 65.7356396,7.32333117 65.7356396,7.75666667 C65.7356396,7.98200113 65.7586304,8.19433234 65.8046126,8.39366667 C65.8505948,8.593001 65.9321075,8.76849924 66.0491532,8.92016667 C66.1661988,9.07183409 66.322954,9.19099957 66.5194234,9.27766667 C66.7158929,9.36433377 66.9646111,9.40766667 67.2655856,9.40766667 C67.4160728,9.40766667 67.5749181,9.39250015 67.7421261,9.36216667 C67.9093342,9.33183318 68.0639993,9.29500022 68.2061261,9.25166667 C68.348253,9.20833312 68.4757472,9.16283357 68.5886126,9.11516667 C68.701478,9.06749976 68.7829907,9.02200022 68.8331532,8.97866667 L68.9334775,10.0056667 C68.7746298,10.1096672 68.5280017,10.2114995 68.1935856,10.3111667 C67.8591695,10.4108338 67.4787769,10.4606667 67.0523964,10.4606667 C66.6510971,10.4606667 66.2957853,10.397834 65.9864505,10.2721667 C65.6771156,10.1464994 65.417947,9.96883448 65.2089369,9.73916667 C64.9999269,9.50949885 64.8410816,9.23650158 64.7323964,8.92016667 C64.6237112,8.60383175 64.5693694,8.25500191 64.5693694,7.87366667 Z M72.2943423,10.4606667 C71.6087894,10.4606667 71.0716416,10.2505021 70.6828829,9.83016667 C70.2941242,9.40983123 70.0997477,8.83133702 70.0997477,8.09466667 C70.0997477,7.59199749 70.16872,7.06333611 70.3066667,6.50866667 C70.4446133,5.95399723 70.6640706,5.44266901 70.965045,4.97466667 C71.2660195,4.50666433 71.6547724,4.12100152 72.1313153,3.81766667 C72.6078582,3.51433182 73.1847173,3.36266667 73.8619099,3.36266667 C74.5474629,3.36266667 75.0846107,3.57283123 75.4733694,3.99316667 C75.8621281,4.4135021 76.0565045,4.99199632 76.0565045,5.72866667 C76.0565045,6.23133585 75.9875322,6.75999723 75.8495856,7.31466667 C75.7116389,7.86933611 75.4921817,8.38066433 75.1912072,8.84866667 C74.8902327,9.31666901 74.5014799,9.70233182 74.0249369,10.0056667 C73.548394,10.3090015 72.9715349,10.4606667 72.2943423,10.4606667 Z M72.494991,9.43366667 C72.8712091,9.43366667 73.2077102,9.32100113 73.5045045,9.09566667 C73.8012988,8.87033221 74.0521071,8.58216842 74.2569369,8.23116667 C74.4617668,7.88016491 74.618522,7.49233546 74.7272072,7.06766667 C74.8358924,6.64299788 74.8902342,6.23133533 74.8902342,5.83266667 C74.8902342,5.39066446 74.7982712,5.03966797 74.6143423,4.77966667 C74.4304135,4.51966537 74.112723,4.38966667 73.6612613,4.38966667 C73.2850432,4.38966667 72.948542,4.50233221 72.6517477,4.72766667 C72.3549535,4.95300113 72.1041452,5.24116491 71.8993153,5.59216667 C71.6944855,5.94316842 71.5377303,6.33099788 71.429045,6.75566667 C71.3203598,7.18033546 71.266018,7.59199801 71.266018,7.99066667 C71.266018,8.43266888 71.3579811,8.78366537 71.5419099,9.04366667 C71.7258388,9.30366797 72.0435293,9.43366667 72.494991,9.43366667 Z M84.3081802,3.38866667 C84.6760379,3.38866667 84.9874582,3.44716608 85.2424505,3.56416667 C85.4974427,3.68116725 85.7022695,3.83933234 85.8569369,4.03866667 C86.0116044,4.238001 86.122378,4.46983201 86.1892613,4.73416667 C86.2561445,4.99850132 86.2895856,5.27799853 86.2895856,5.57266667 C86.2895856,5.76333429 86.2749551,5.96916556 86.2456937,6.19016667 C86.2164323,6.41116777 86.176721,6.62566563 86.1265586,6.83366667 L85.323964,10.2916667 L84.1576937,10.2916667 L84.8975856,7.09366667 C84.9393876,6.89433234 84.9874592,6.6711679 85.0418018,6.42416667 C85.0961444,6.17716543 85.1233153,5.93233455 85.1233153,5.68966667 C85.1233153,5.52499918 85.1045047,5.36466745 85.0668829,5.20866667 C85.0292611,5.05266589 84.966559,4.9183339 84.8787748,4.80566667 C84.7909906,4.69299944 84.6676765,4.60200035 84.5088288,4.53266667 C84.3499812,4.46333299 84.1535147,4.42866667 83.9194234,4.42866667 C83.6518906,4.42866667 83.392722,4.48283279 83.1419099,4.59116667 C82.8910978,4.69950054 82.6820909,4.80999944 82.5148829,4.92266667 C82.5316037,5.04400061 82.5462342,5.16316608 82.5587748,5.28016667 C82.5713154,5.39716725 82.5775856,5.51199944 82.5775856,5.62466667 C82.5775856,5.824001 82.5629551,6.02549898 82.5336937,6.22916667 C82.5044323,6.43283435 82.4689011,6.63433234 82.4270991,6.83366667 L81.6245045,10.2916667 L80.4582342,10.2916667 L81.1981261,7.09366667 C81.2399281,6.89433234 81.2859097,6.66900126 81.3360721,6.41766667 C81.3862345,6.16633208 81.4113153,5.91500126 81.4113153,5.66366667 C81.4113153,5.49899918 81.3945948,5.34083409 81.3611532,5.18916667 C81.3277115,5.03749924 81.2712797,4.9053339 81.1918559,4.79266667 C81.112432,4.67999944 81.0058385,4.59116699 80.8720721,4.52616667 C80.7383056,4.46116634 80.56692,4.42866667 80.3579099,4.42866667 C80.1488999,4.42866667 79.9461631,4.44166654 79.7496937,4.46766667 C79.5532242,4.4936668 79.3881088,4.52833312 79.2543423,4.57166667 L77.925045,10.2916667 L76.7587748,10.2916667 L78.2636396,3.79166667 C78.6398577,3.67033273 79.0516014,3.5728337 79.4988829,3.49916667 C79.9461644,3.42549963 80.3453676,3.38866667 80.6965045,3.38866667 C81.0476414,3.38866667 81.3444312,3.45149937 81.5868829,3.57716667 C81.8293345,3.70283396 82.0216209,3.86966563 82.1637477,4.07766667 C82.2473518,4.0169997 82.3623056,3.94766706 82.5086126,3.86966667 C82.6549197,3.79166628 82.8221252,3.71800035 83.0102342,3.64866667 C83.1983433,3.57933299 83.4031701,3.51866693 83.6247207,3.46666667 C83.8462714,3.41466641 84.0740889,3.38866667 84.3081802,3.38866667 Z M90.9421261,3.36266667 C91.3517858,3.36266667 91.7050075,3.42333273 92.0018018,3.54466667 C92.2985961,3.66600061 92.5431342,3.83283227 92.7354234,4.04516667 C92.9277127,4.25750106 93.0719274,4.50883188 93.1680721,4.79916667 C93.2642167,5.08950145 93.3122883,5.40799827 93.3122883,5.75466667 C93.3122883,6.35266966 93.2245054,6.93116387 93.0489369,7.49016667 C92.8733685,8.04916946 92.6037496,8.54533117 92.2400721,8.97866667 C91.8763946,9.41200217 91.4165794,9.75866537 90.8606126,10.0186667 C90.3046459,10.278668 89.6462741,10.4086667 88.8854775,10.4086667 C88.7935131,10.4086667 88.6931897,10.4043334 88.5845045,10.3956667 C88.4758193,10.387 88.3796761,10.3740001 88.2960721,10.3566667 L87.7568288,12.6966667 L86.5905586,12.6966667 L88.6472072,3.81766667 C88.9983441,3.6703326 89.3808268,3.55766706 89.7946667,3.47966667 C90.2085066,3.40166628 90.5909892,3.36266667 90.9421261,3.36266667 Z M88.5343423,9.34266667 C88.6179464,9.36000009 88.7078193,9.37083331 88.803964,9.37516667 C88.9001086,9.37950002 88.9941617,9.38166667 89.0861261,9.38166667 C89.562669,9.38166667 89.9890432,9.28633429 90.3652613,9.09566667 C90.7414794,8.90499905 91.0612599,8.64716829 91.3246126,8.32216667 C91.5879653,7.99716504 91.790702,7.6245021 91.9328288,7.20416667 C92.0749557,6.78383123 92.146018,6.3440023 92.146018,5.88466667 C92.146018,5.69399905 92.1251173,5.50766758 92.0833153,5.32566667 C92.0415133,5.14366576 91.9641807,4.98333403 91.8513153,4.84466667 C91.7384499,4.70599931 91.5858748,4.59550041 91.3935856,4.51316667 C91.2012963,4.43083292 90.9546682,4.38966667 90.6536937,4.38966667 C90.4446836,4.38966667 90.2523973,4.40916647 90.0768288,4.44816667 C89.9012604,4.48716686 89.7549555,4.52399983 89.6379099,4.55866667 L88.5343423,9.34266667 Z M98.4539099,10.3696667 C98.4121079,10.2743329 98.3703065,10.1681673 98.3285045,10.0511667 C98.2867025,9.93416608 98.2532614,9.81066732 98.2281802,9.68066667 C98.0442513,9.85400087 97.7976232,10.0273325 97.4882883,10.2006667 C97.1789534,10.3740009 96.7985608,10.4606667 96.3470991,10.4606667 C95.9792414,10.4606667 95.663641,10.4000006 95.4002883,10.2786667 C95.1369356,10.1573327 94.9216585,9.98833442 94.7544505,9.77166667 C94.5872424,9.55499892 94.4639283,9.29933481 94.3845045,9.00466667 C94.3050807,8.70999853 94.2653694,8.38500178 94.2653694,8.02966667 C94.2653694,7.4489971 94.3594225,6.88133611 94.5475315,6.32666667 C94.7356406,5.77199723 95.0177999,5.27800217 95.394018,4.84466667 C95.7702361,4.41133117 96.2425918,4.06033468 96.8110991,3.79166667 C97.3796064,3.52299866 98.0442484,3.38866667 98.805045,3.38866667 C99.0307759,3.38866667 99.2941246,3.41466641 99.5950991,3.46666667 C99.8960736,3.51866693 100.155242,3.60533273 100.372613,3.72666667 L99.406991,7.80866667 C99.365189,8.008001 99.3296578,8.19866576 99.3003964,8.38066667 C99.271135,8.56266758 99.2565045,8.75333234 99.2565045,8.95266667 C99.2565045,9.152001 99.2732251,9.35349898 99.3066667,9.55716667 C99.3401083,9.76083435 99.3986302,9.9796655 99.4822342,10.2136667 L98.4539099,10.3696667 Z M96.5853694,9.43366667 C96.9365063,9.43366667 97.2374762,9.35566745 97.4882883,9.19966667 C97.7391004,9.04366589 97.9564675,8.86166771 98.1403964,8.65366667 C98.1487568,8.5063326 98.1633873,8.3525008 98.1842883,8.19216667 C98.2051893,8.03183253 98.2323602,7.86933416 98.2658018,7.70466667 L99.0182342,4.48066667 C98.9764322,4.46333325 98.9074599,4.45033338 98.8113153,4.44166667 C98.7151707,4.43299996 98.6294779,4.42866667 98.5542342,4.42866667 C98.0776913,4.42866667 97.6471371,4.52399905 97.2625586,4.71466667 C96.8779801,4.90533429 96.5498392,5.15883175 96.2781261,5.47516667 C96.0064131,5.79150158 95.7974061,6.15983123 95.6510991,6.58016667 C95.5047921,7.0005021 95.4316396,7.44033104 95.4316396,7.89966667 C95.4316396,8.08166758 95.4483602,8.2658324 95.4818018,8.45216667 C95.5152434,8.63850093 95.5758554,8.80316595 95.6636396,8.94616667 C95.7514239,9.08916738 95.8684677,9.20616621 96.0147748,9.29716667 C96.1610818,9.38816712 96.3512781,9.43366667 96.5853694,9.43366667 Z M101.977802,10.2916667 L100.811532,10.2916667 L102.316396,3.79166667 C102.700975,3.67033273 103.116899,3.5728337 103.56418,3.49916667 C104.011462,3.42549963 104.410665,3.38866667 104.761802,3.38866667 C105.13802,3.38866667 105.461981,3.44283279 105.733694,3.55116667 C106.005407,3.65950054 106.224864,3.8068324 106.392072,3.99316667 C106.55928,4.17950093 106.682594,4.40483201 106.762018,4.66916667 C106.841442,4.93350132 106.881153,5.22166511 106.881153,5.53366667 C106.881153,5.733001 106.864433,5.94316556 106.830991,6.16416667 C106.797549,6.38516777 106.755748,6.60833221 106.705586,6.83366667 L105.902991,10.2916667 L104.736721,10.2916667 L105.476613,7.09366667 C105.535135,6.85099879 105.591567,6.60400126 105.64591,6.35266667 C105.700253,6.10133208 105.727423,5.86300113 105.727423,5.63766667 C105.727423,5.29099827 105.63546,5.00283448 105.451532,4.77316667 C105.267603,4.54349885 104.924831,4.42866667 104.423207,4.42866667 C104.214197,4.42866667 104.00937,4.44166654 103.808721,4.46766667 C103.608071,4.4936668 103.440866,4.52833312 103.307099,4.57166667 L101.977802,10.2916667 Z M110.191856,9.19966667 C110.509551,8.67966407 110.797981,8.14016946 111.057153,7.58116667 C111.316326,7.02216387 111.544143,6.48700256 111.740613,5.97566667 C111.937082,5.46433078 112.102198,4.99416881 112.235964,4.56516667 C112.36973,4.13616452 112.465874,3.79166797 112.524396,3.53166667 L113.740829,3.53166667 C113.648864,3.86100165 113.51928,4.27049755 113.352072,4.76016667 C113.184864,5.24983578 112.982127,5.77849716 112.743856,6.34616667 C112.505584,6.91383617 112.238056,7.49449703 111.941261,8.08816667 C111.644467,8.6818363 111.320506,9.25166394 110.969369,9.79766667 C110.701837,10.205002 110.434308,10.5884982 110.166775,10.9481667 C109.899242,11.3078351 109.612902,11.619832 109.307748,11.8841667 C109.002593,12.1485013 108.666092,12.3564992 108.298234,12.5081667 C107.930377,12.6598341 107.516543,12.7356667 107.056721,12.7356667 C106.822629,12.7356667 106.605262,12.7053336 106.404613,12.6446667 C106.203963,12.5839997 106.057658,12.5190003 105.965694,12.4496667 L106.366991,11.4616667 C106.450595,11.5310003 106.563459,11.5894998 106.705586,11.6371667 C106.847712,11.6848336 107.006558,11.7086667 107.182126,11.7086667 C107.667029,11.7086667 108.078773,11.5873345 108.417369,11.3446667 C108.755966,11.1019988 109.075746,10.7813353 109.376721,10.3826667 C109.067386,9.33399476 108.814487,8.22900581 108.618018,7.06766667 C108.421549,5.90632753 108.302415,4.72767265 108.260613,3.53166667 L109.451964,3.53166667 C109.460324,3.92166862 109.481225,4.34849768 109.514667,4.81216667 C109.548108,5.27583565 109.59618,5.75683084 109.658883,6.25516667 C109.721586,6.75350249 109.796828,7.25399749 109.884613,7.75666667 C109.972397,8.25933585 110.07481,8.74033104 110.191856,9.19966667 Z" id="company" fill="#E5E5E5"></path>
            <path d="M2.68367568,7.97766667 L1.4547027,10.2916667 L0.125405405,10.2916667 C1.06177045,8.54099125 1.97513068,6.92900737 2.86551351,5.45566667 C3.75589634,3.98232597 4.63581547,2.59133988 5.5052973,1.28266667 L6.69664865,1.28266667 C6.82205468,1.93266992 6.93700849,2.58916335 7.04151351,3.25216667 C7.14601854,3.91516998 7.24843193,4.61066303 7.34875676,5.33866667 C7.44908158,6.06667031 7.54522477,6.83799593 7.63718919,7.65266667 C7.72915361,8.46733741 7.8252968,9.34699528 7.92562162,10.2916667 L6.69664865,10.2916667 C6.65484664,9.90166472 6.61722539,9.50950197 6.58378378,9.11516667 C6.55034218,8.72083136 6.51272093,8.34166849 6.47091892,7.97766667 L2.68367568,7.97766667 Z M6.35805405,6.96366667 C6.29117084,6.26166316 6.21383828,5.56400347 6.12605405,4.87066667 C6.03826983,4.17732987 5.93585644,3.46233702 5.81881081,2.72566667 C5.52619674,3.16766888 5.1625247,3.73749651 4.72778378,4.43516667 C4.29304287,5.13283682 3.79978654,5.97566173 3.248,6.96366667 L6.35805405,6.96366667 Z" id="A" fill="#E5E5E5"></path>
            <g id="bitcoin-logo" transform="translate(21.468468, 0.000000)" fill-rule="nonzero" fill="#F6F6F6">
                <path d="M5.14545741,3.2275 C5.57249234,3.2275 5.94143735,3.305 6.25130508,3.45716667 C6.56298298,3.61083333 6.82002673,3.81783333 7.02622125,4.07816667 C7.22961823,4.33983333 7.38101404,4.64566667 7.47876307,4.99616667 C7.57585387,5.34783333 7.62456382,5.7255 7.62456382,6.12983333 C7.62456382,6.7515 7.51216889,7.33816667 7.28523973,7.8915 C7.05814602,8.44566667 6.75041757,8.9265 6.35876319,9.3365 C5.96743793,9.746 5.50535159,10.0686667 4.97250415,10.3071667 C4.44047952,10.5458333 3.86204879,10.6651667 3.24099684,10.6651667 C3.16069124,10.6651667 3.01949819,10.6628333 2.82005066,10.6586667 C2.62060314,10.6545 2.39137013,10.6336667 2.13465549,10.5986667 C1.85871628,10.5587599 1.58501175,10.5043532 1.3146497,10.4356667 C1.03170995,10.3664763 0.756831227,10.267029 0.49464391,10.139 L2.80046794,0.326 L4.86570428,0.002 L4.04010343,3.48416667 C4.2117995,3.40557381 4.38999338,3.34244125 4.57262174,3.2955 C4.76007506,3.24935159 4.95238354,3.22651653 5.14529285,3.2275 L5.14545741,3.2275 Z M3.4131273,9.00583333 C3.72414695,9.00583333 4.01706494,8.92833333 4.29253949,8.77633333 C4.56943115,8.62302567 4.81242372,8.41396064 5.00656821,8.162 C5.20945083,7.89928899 5.3691013,7.60511126 5.479351,7.29083333 C5.59495694,6.9659691 5.65365444,6.62315205 5.65279794,6.27783333 C5.65279794,5.84583333 5.58154317,5.5095 5.43952732,5.26566667 C5.29751147,5.02316667 5.03470808,4.90116667 4.65292734,4.90116667 C4.52786124,4.90116667 4.36692091,4.92533333 4.16714426,4.9685 C3.96670937,5.01433333 3.78733825,5.1095 3.62656248,5.25266667 L2.74731485,8.95066667 C2.80030338,8.96016667 2.84720317,8.96916667 2.88719141,8.97766667 C2.92635685,8.98683333 2.96947174,8.99333333 3.0127512,8.99783333 C3.0583345,9.003 3.11050023,9.00566667 3.17352697,9.00566667 L3.41296274,9.00583333 L3.4131273,9.00583333 Z M9.76632087,10.4775 L7.79373219,10.4775 L9.45957979,3.378 L11.4456625,3.378 L9.76632087,10.4775 Z M10.7262032,2.513 C10.4570893,2.51526036 10.1947414,2.42762914 9.97975605,2.26366667 C9.75644723,2.09833333 9.64569791,1.84383333 9.64569791,1.50083333 C9.64569791,1.31216667 9.68354686,1.13516667 9.75875108,0.968166667 C9.83142696,0.806392786 9.93334246,0.659816168 10.0592389,0.536 C10.1854168,0.414020262 10.3319496,0.3156647 10.4920334,0.2455 C10.6586405,0.173390722 10.8381065,0.136743176 11.0192858,0.137833333 C11.2944312,0.137833333 11.5425887,0.220833333 11.7650747,0.387166667 C11.9865734,0.554333333 12.0979809,0.808833333 12.0979809,1.15 C12.0990671,1.33415262 12.0603097,1.51631082 11.9844341,1.68366667 C11.9124637,1.84559713 11.810836,1.9922416 11.6849337,2.11583333 C11.5590485,2.2379712 11.4124344,2.33609911 11.2521391,2.4055 C11.0872493,2.4785 10.9124859,2.513 10.7262032,2.513 L10.7262032,2.513 Z M13.1743722,1.60916667 L15.2404314,1.285 L14.7330909,3.37766667 L16.9457735,3.37766667 L16.5462203,5.024 L14.346867,5.024 L13.761031,7.50733333 C13.7070551,7.71416667 13.6764468,7.9075 13.6678897,8.08733333 C13.658016,8.26783333 13.6807254,8.42283333 13.7340431,8.55333333 C13.7870316,8.68416667 13.8821477,8.785 14.0203786,8.85616667 C14.1581159,8.92866667 14.355095,8.96516667 14.6134552,8.96516667 C14.8262322,8.96516667 15.0337432,8.94466667 15.233849,8.904 C15.4394473,8.86272438 15.6418347,8.80646699 15.8394322,8.73566667 L15.9868786,10.2748333 C15.7037852,10.3786513 15.4144504,10.464102 15.1206312,10.5306667 C14.8091179,10.6033333 14.4403374,10.6381667 14.0141253,10.6381667 C13.4013014,10.6381667 12.9262148,10.546 12.5877135,10.3626667 C12.2497059,10.178 12.0107638,9.92533333 11.8677606,9.60566667 C11.7267321,9.28733333 11.6637053,8.92016667 11.6813133,8.50633333 C11.699415,8.09166667 11.7612898,7.65566667 11.8677606,7.19683333 L13.1743722,1.60916667 L13.1743722,1.60916667 Z M16.8590501,7.64266667 C16.8590501,7.031 16.9567991,6.4545 17.1519681,5.9145 C17.3469724,5.37416667 17.6278775,4.90166667 17.9922148,4.49633333 C18.3554002,4.093 18.7979038,3.77316667 19.3189029,3.5385 C19.8369399,3.30516667 20.4175099,3.1875 21.0569926,3.1875 C21.4575333,3.1875 21.8151236,3.22583333 22.1299282,3.30266667 C22.4458846,3.38016667 22.731562,3.48033333 22.9900868,3.606 L22.3099575,5.17266667 C22.128663,5.09886705 21.9441041,5.03357546 21.7568691,4.977 C21.5659788,4.9175 21.3331254,4.88883333 21.0574863,4.88883333 C20.3989145,4.88883333 19.8785737,5.11883333 19.4911979,5.57683333 C19.1051386,6.03533333 18.9107924,6.6525 18.9107924,7.42683333 C18.9107924,7.88566667 19.008706,8.2565 19.2048623,8.54033333 C19.4000313,8.82416667 19.7605837,8.9655 20.2840512,8.9655 C20.5422469,8.9655 20.7917208,8.93816667 21.0304984,8.88483333 C21.2710861,8.83083333 21.4835339,8.76283333 21.6706393,8.6825 L21.8180857,10.2885 C21.5481917,10.3933448 21.272265,10.4815068 20.9918266,10.5525 C20.689035,10.6275 20.3291408,10.6661667 19.9116504,10.6661667 C19.3607013,10.6661667 18.8940073,10.5846667 18.5125556,10.4236667 C18.1307749,10.2605 17.8153121,10.0436667 17.5666609,9.769 C17.3168578,9.49366667 17.1376513,9.172 17.0267374,8.80316667 C16.9158235,8.43433333 16.8588855,8.0465 16.8588855,7.64266667 L16.8590501,7.64266667 Z M25.6219055,10.6656667 C25.1510974,10.6656667 24.7419996,10.593 24.3951057,10.4491667 C24.0491992,10.3055 23.7628636,10.1035 23.536099,9.84183333 C23.3090053,9.5815 23.1393433,9.273 23.0229989,8.9175 C22.9066545,8.56216667 22.8507039,8.16866667 22.8507039,7.7375 C22.8507039,7.19683333 22.9362754,6.65616667 23.1097224,6.11666667 C23.2823465,5.57666667 23.5382383,5.091 23.8765751,4.6595 C24.2127725,4.22733333 24.6274654,3.874 25.1152232,3.5985 C25.6028164,3.32483333 26.1634746,3.18716667 26.7935774,3.18716667 C27.2558283,3.18716667 27.6624577,3.26 28.0142884,3.40383333 C28.3643089,3.54733333 28.6526192,3.75083333 28.8805357,4.01116667 C29.1059839,4.27283333 29.2774561,4.58 29.3923194,4.93616667 C29.5084992,5.29066667 29.5657664,5.68516667 29.5657664,6.11666667 C29.5657664,6.65566667 29.4811822,7.19666667 29.3134949,7.73733333 C29.1454784,8.27566667 28.896169,8.76233333 28.5670477,9.19466667 C28.2385846,9.62633333 27.8280057,9.97933333 27.3344883,10.2536667 C26.8419582,10.5281667 26.270439,10.6656667 25.6219055,10.6656667 L25.6219055,10.6656667 Z M26.6076238,4.889 C26.3151995,4.889 26.0566747,4.97483333 25.8353406,5.14466667 C25.6131837,5.3165 25.4267365,5.53266667 25.2763281,5.793 C25.124274,6.05466667 25.0117145,6.34 24.9355229,6.65016667 C24.859825,6.961 24.8227989,7.25516667 24.8227989,7.534 C24.8227989,7.9845 24.8947119,8.33566667 25.0355758,8.588 C25.1784145,8.839 25.4354582,8.9655 25.8086818,8.9655 C26.1020935,8.9655 26.3594664,8.88 26.5819524,8.7085 C26.8027928,8.538 26.9897337,8.32183333 27.1411295,8.06066667 C27.2921962,7.80066667 27.4059076,7.51433333 27.4820992,7.2035 C27.5566452,6.89366667 27.5946587,6.59816667 27.5946587,6.3195 C27.5946587,5.87016667 27.5232394,5.5185 27.3807298,5.26633333 C27.2388786,5.01516667 26.9806829,4.88883333 26.6076238,4.88883333 L26.6076238,4.889 Z M31.7154223,10.4775 L29.7413526,10.4775 L31.4072002,3.378 L33.3941057,3.378 L31.7154223,10.4775 L31.7154223,10.4775 Z M32.6738236,2.513 C32.4049561,2.51530089 32.1428565,2.42765601 31.9281993,2.26366667 C31.7057132,2.09833333 31.5941411,1.84383333 31.5941411,1.50083333 C31.5941411,1.31216667 31.6326483,1.13516667 31.707688,0.968166667 C31.7798858,0.806199848 31.8817356,0.659557177 32.0078466,0.536 C32.1341767,0.413976584 32.2808792,0.31561926 32.4411348,0.2455 C32.607102,0.173376839 32.7859808,0.136723353 32.966577,0.137833333 C33.2425453,0.137833333 33.4915256,0.220833333 33.7135179,0.387166667 C33.9355102,0.554333333 34.0474115,0.808833333 34.0474115,1.15 C34.0474115,1.33933333 34.0075878,1.517 33.9330418,1.68366667 C33.8584958,1.85033333 33.7582784,1.99383333 33.6341997,2.11583333 C33.5080871,2.23768255 33.3615274,2.33577409 33.2014051,2.4055 C33.0360216,2.4785 32.8612582,2.513 32.6738236,2.513 Z M34.8157452,3.70083333 C34.9654954,3.6565 35.1326891,3.60316667 35.314364,3.54516667 C35.5164766,3.48168872 35.7214808,3.42807149 35.928669,3.3845 C36.1539526,3.3345 36.4081988,3.29366667 36.6877874,3.26216667 C36.9672114,3.23 37.2859654,3.21433333 37.6397708,3.21433333 C38.6801233,3.21433333 39.3972787,3.52116667 39.7932117,4.133 C40.1888155,4.74483333 40.2572727,5.582 40.0005581,6.6435 L39.0931706,10.4768333 L37.1075816,10.4768333 L37.9871584,6.724 C38.0406406,6.48983333 38.0826035,6.26316667 38.1138701,6.04183333 C38.1454657,5.8225 38.143491,5.629 38.1069585,5.46183333 C38.0746981,5.30156768 37.9876357,5.15797085 37.8611049,5.05633333 C37.7309374,4.95316667 37.5342874,4.90133333 37.2676991,4.90133333 C37.0036916,4.90238802 36.7404327,4.92985473 36.4817574,4.98333333 L35.1888043,10.4763333 L33.202557,10.4763333 L34.8157452,3.70083333 L34.8157452,3.70083333 Z" id="Shape"></path>
            </g>
            <g id="Group" transform="translate(10.495495, 0.000000)" fill-rule="nonzero">
                <path d="M10.537313,6.624 C9.83398075,9.48166667 6.97671393,11.22 4.15515678,10.5076667 C1.33508067,9.79533333 -0.381780742,6.90133333 0.32188066,4.04433333 C1.02488382,1.18666667 3.88198608,-0.552166667 6.70255587,0.160166667 C9.5237839,0.8725 11.2404808,3.76683333 10.5371485,6.624 L10.537313,6.624 Z" id="Shape" fill="#F7931A"></path>
                <path d="M7.75130098,4.57416667 C7.85612613,3.8645 7.32262045,3.483 6.59312303,3.2285 L6.82976126,2.26716667 L6.25198877,2.12133333 L6.02160384,3.05733333 C5.86771236,3.01903745 5.71345688,2.98225794 5.55885925,2.947 L5.79088979,2.00483333 L5.21328185,1.859 L4.97664362,2.82 C4.85091927,2.791 4.72749877,2.76233333 4.60769861,2.73216667 L4.60835685,2.72916667 L3.81155411,2.52766667 L3.65785445,3.15266667 C3.65785445,3.15266667 4.08653498,3.25216667 4.07748415,3.25833333 C4.31148941,3.3175 4.3537815,3.47433333 4.34670539,3.59866667 L4.07715503,4.69383333 C4.09328197,4.698 4.11418117,4.70416667 4.13721967,4.71333333 L4.07616766,4.698 L3.69833638,6.23216667 C3.66970282,6.30416667 3.59713157,6.41216667 3.43339371,6.37116667 C3.43931789,6.37966667 3.01359945,6.265 3.01359945,6.265 L2.72677021,6.935 L3.47864789,7.125 C3.61852445,7.16033333 3.75560349,7.1975 3.89054323,7.2325 L3.65143659,8.20483333 L4.22855084,8.35066667 L4.46518907,7.3885 C4.62283819,7.432 4.77587961,7.47183333 4.92562981,7.50966667 L4.68964982,8.46716667 L5.26725775,8.613 L5.50652896,7.6425 C6.49175366,7.83133333 7.23260577,7.75516667 7.54444823,6.85283333 C7.79573236,6.12616667 7.53194162,5.707 7.01357552,5.4335 C7.39107769,5.34516667 7.67543852,5.09366667 7.75130098,4.57416667 L7.75130098,4.57416667 Z M6.43103077,6.44883333 C6.25248245,7.1755 5.04444261,6.78283333 4.65278823,6.68416667 L4.97006119,5.396 C5.36171557,5.49516667 6.61764256,5.69116667 6.43103077,6.44883333 Z M6.60974365,4.56383333 C6.44682859,5.22466667 5.44136293,4.88883333 5.1152037,4.8065 L5.40285574,3.63816667 C5.72901498,3.7205 6.7794057,3.87416667 6.60974365,4.56366667 L6.60974365,4.56383333 Z" id="Shape" fill="#FFFFFF"></path>
            </g>
        </g>
    </g>
</svg>