<?xml version="1.0" encoding="UTF-8"?>
<svg width="2602px" height="634px" viewBox="0 0 2602 634" version="1.1" xmlns="http://www.w3.org/2000/svg" xmlns:xlink="http://www.w3.org/1999/xlink">
    <!-- Generator: Sketch 43 (38999) - http://www.bohemiancoding.com/sketch -->
    <title>Slice</title>
    <desc>Created with Sketch.</desc>
    <defs></defs>
    <g id="Page-1" stroke="none" stroke-width="1" fill="none" fill-rule="evenodd">
        <g id="blockfreight_logo" transform="translate(53.000000, 54.000000)" fill-rule="nonzero" fill="#484848">
            <g id="blockfreight_brandmark" transform="translate(939.757530, 130.845771)">
                <g id="Page-1">
                    <path d="M86.9275715,42.2631841 C95.6725374,42.2631841 103.764894,43.0482587 110.943597,44.618408 C118.252823,46.1885572 124.387351,48.6746269 129.608226,52.3383085 C134.829101,55.8711443 138.744758,60.581592 141.616239,66.4696517 C144.48772,72.3577114 145.923461,79.5542289 145.923461,88.1900498 C145.923461,97.4800995 143.835111,105.330846 139.527889,111.611443 C135.351189,117.89204 129.086138,122.995025 120.732738,126.920398 C132.088142,130.191542 140.572064,135.948756 146.184505,144.19204 C151.796945,152.435323 154.537905,162.379602 154.537905,173.89403 C154.537905,183.18408 152.710599,191.296517 149.055986,198.100498 C145.401373,204.904478 140.572064,210.530846 134.437536,214.848756 C128.303007,219.166667 121.385348,222.306965 113.423513,224.400498 C105.5922,226.49403 97.4998437,227.540796 89.2769653,227.540796 L0,227.540796 L0,42.2631841 L86.9275715,42.2631841 L86.9275715,42.2631841 Z M81.8372182,117.237811 C89.1464435,117.237811 95.019928,115.536816 99.7187157,112.00398 C104.417503,108.60199 106.766897,102.975622 106.766897,95.1248756 C106.766897,90.8069652 105.983766,87.2741294 104.417503,84.5263682 C102.851241,81.778607 100.762891,79.5542289 98.1524531,77.9840796 C95.5420155,76.4139303 92.5400123,75.3671642 89.2769653,74.7129353 C85.8833965,74.0587065 82.3593057,73.7970149 78.835215,73.7970149 L40.7228263,73.7970149 L40.7228263,117.106965 L81.8372182,117.106965 L81.8372182,117.237811 Z M84.0560902,195.876119 C87.9717465,195.876119 91.756881,195.483582 95.4114937,194.698507 C99.0661063,193.913433 102.198631,192.604975 104.939591,190.773134 C107.68055,188.941294 109.899422,186.455224 111.596207,183.445771 C113.292991,180.305473 114.076122,176.3801 114.076122,171.538806 C114.076122,161.987065 111.335163,155.183085 105.983766,151.126866 C100.632369,147.070647 93.5841873,144.977114 84.7086996,144.977114 L40.4617825,144.977114 L40.4617825,195.876119 L84.0560902,195.876119 L84.0560902,195.876119 Z" id="XMLID_315_"></path>
                    <polygon id="XMLID_313_" points="216.144232 42.2631841 216.144232 227.540796 179.337062 227.540796 179.337062 42.2631841"></polygon>
                    <path d="M245.90322,131.369154 C249.166267,122.602488 253.865055,115.144279 259.869061,108.994527 C265.873068,102.844776 273.182293,98.1343284 281.666215,94.7323383 C290.150137,91.3303483 299.547713,89.6293532 310.119985,89.6293532 C320.692257,89.6293532 330.220354,91.3303483 338.704276,94.7323383 C347.188199,98.1343284 354.497424,102.844776 360.631952,108.994527 C366.635959,115.144279 371.334746,122.602488 374.597793,131.369154 C377.86084,140.135821 379.557625,149.818408 379.557625,160.547761 C379.557625,171.277114 377.86084,180.959701 374.597793,189.595522 C371.334746,198.231343 366.635959,205.689552 360.631952,211.839303 C354.627946,217.989055 347.31872,222.699502 338.704276,225.970647 C330.220354,229.241791 320.561735,230.942786 310.119985,230.942786 C299.547713,230.942786 290.150137,229.372637 281.666215,225.970647 C273.182293,222.699502 266.00359,217.989055 259.869061,211.839303 C253.865055,205.689552 249.166267,198.362189 245.90322,189.595522 C242.640173,180.959701 240.943389,171.277114 240.943389,160.547761 C240.943389,149.818408 242.640173,140.135821 245.90322,131.369154 L245.90322,131.369154 Z M279.316821,176.249254 C280.360996,181.352239 282.057781,185.931841 284.668218,189.98806 C287.148134,194.044279 290.541703,197.315423 294.587881,199.670647 C298.764581,202.156716 303.854935,203.334328 310.119985,203.334328 C316.385035,203.334328 321.60591,202.156716 325.78261,199.670647 C329.95931,197.315423 333.352879,194.044279 335.832795,189.98806 C338.312711,185.931841 340.140017,181.352239 341.184192,176.249254 C342.228367,171.146269 342.750455,165.912438 342.750455,160.547761 C342.750455,155.183085 342.228367,149.949254 341.184192,144.715423 C340.140017,139.481592 338.312711,134.90199 335.832795,130.976617 C333.352879,127.051244 329.95931,123.7801 325.78261,121.29403 C321.60591,118.80796 316.385035,117.499502 310.119985,117.499502 C303.854935,117.499502 298.764581,118.80796 294.587881,121.29403 C290.411181,123.7801 287.148134,127.051244 284.668218,130.976617 C282.188303,134.90199 280.360996,139.481592 279.316821,144.715423 C278.272646,149.949254 277.750559,155.183085 277.750559,160.547761 C277.750559,165.912438 278.272646,171.146269 279.316821,176.249254 L279.316821,176.249254 Z" id="XMLID_308_"></path>
                    <path d="M467.137805,117.499502 C461.264321,117.499502 456.304489,118.80796 452.388833,121.555721 C448.473177,124.303483 445.21013,127.705473 442.730214,131.892537 C440.250298,136.079602 438.422992,140.79005 437.378817,145.893035 C436.334642,150.99602 435.812554,156.099005 435.812554,161.071144 C435.812554,165.912438 436.334642,170.884577 437.378817,175.856716 C438.422992,180.828856 440.119776,185.408458 442.46917,189.464677 C444.818564,193.520896 447.951089,196.79204 451.866746,199.408955 C455.782402,202.025871 460.611711,203.334328 466.354674,203.334328 C475.09964,203.334328 481.886778,200.848259 486.716087,195.876119 C491.414875,190.90398 494.416878,184.361692 495.591575,175.987562 L531.093526,175.987562 C528.744132,193.782587 521.826473,207.390547 510.340547,216.680597 C498.985144,225.970647 484.366694,230.681095 466.615718,230.681095 C456.565533,230.681095 447.429002,228.9801 439.075601,225.578109 C430.722201,222.176119 423.543498,217.465672 417.800535,211.446766 C411.927051,205.427861 407.358785,198.231343 404.095738,189.726368 C400.832691,181.352239 399.135906,172.193035 399.135906,162.11791 C399.135906,151.781095 400.702169,142.098507 403.704172,133.200995 C406.706175,124.303483 411.143919,116.583582 417.017404,110.041294 C422.890888,103.499005 430.069592,98.5268657 438.553514,94.8631841 C447.037436,91.1995025 456.696055,89.3676617 467.529371,89.3676617 C475.491206,89.3676617 483.061475,90.4144279 490.501222,92.5079602 C497.810447,94.6014925 504.336541,97.741791 510.210026,101.928856 C515.952988,106.11592 520.651776,111.480597 524.306389,117.761194 C527.961001,124.041791 530.049351,131.5 530.571439,140.266667 L494.5474,140.266667 C491.936962,125.219403 482.930953,117.499502 467.137805,117.499502 L467.137805,117.499502 Z" id="XMLID_304_"></path>
                    <polygon id="XMLID_301_" points="591.916722 42.2631841 591.916722 141.70597 638.251989 93.4238806 681.715775 93.4238806 631.203808 142.752736 687.328216 227.540796 642.820255 227.540796 606.013085 167.613433 591.7862 181.352239 591.7862 227.540796 554.97903 227.540796 554.97903 42.2631841"></polygon>
                    <path d="M686.414562,118.022886 L686.414562,93.4238806 L708.47276,93.4238806 L708.47276,83.0870647 C708.47276,71.1800995 712.127373,61.3666667 719.56712,53.7776119 C727.006867,46.1885572 738.231748,42.3940299 753.241765,42.3940299 C756.504812,42.3940299 759.767858,42.5248756 763.030905,42.7865672 C766.293952,43.0482587 769.426478,43.3099502 772.559003,43.440796 L772.559003,70.918408 C768.251781,70.3950249 763.683515,70.1333333 759.115249,70.1333333 C754.155418,70.1333333 750.500805,71.3109453 748.412455,73.6661692 C746.324105,76.021393 745.149408,79.9467662 745.149408,85.4422886 L745.149408,93.4238806 L770.470653,93.4238806 L770.470653,118.022886 L745.149408,118.022886 L745.149408,227.540796 L708.342238,227.540796 L708.342238,118.022886 L686.414562,118.022886 L686.414562,118.022886 Z" id="XMLID_298_"></path>
                    <path d="M821.504707,93.2930348 L821.504707,118.153731 L822.026795,118.153731 C823.723579,113.966667 826.072973,110.172139 829.074976,106.639303 C831.946458,103.106468 835.340027,100.097015 839.125161,97.6109453 C842.910296,95.1248756 846.956474,93.1621891 851.263696,91.7228856 C855.570918,90.2835821 860.008662,89.6293532 864.707449,89.6293532 C867.056843,89.6293532 869.797803,90.0218905 872.669284,90.9378109 L872.669284,125.219403 C870.9725,124.826866 868.884149,124.565174 866.534756,124.303483 C864.05484,124.041791 861.835968,123.910945 859.486574,123.910945 C852.699436,123.910945 847.086996,125.088557 842.388208,127.312935 C837.819942,129.537313 834.034808,132.677612 831.163326,136.472139 C828.291845,140.397512 826.334017,144.977114 825.028798,150.0801 C823.854101,155.31393 823.201492,160.940299 823.201492,166.959204 L823.201492,227.40995 L786.394322,227.40995 L786.394322,93.2930348 L821.504707,93.2930348 L821.504707,93.2930348 Z" id="XMLID_294_"></path>
                    <path d="M922.006554,195.352736 C927.488473,200.717413 935.450308,203.465174 945.761536,203.465174 C953.201283,203.465174 959.596855,201.633333 964.948253,197.838806 C970.29965,194.175124 973.562697,190.118905 974.737393,186.062687 L1007.10682,186.062687 C1001.88594,202.156716 993.92411,213.671144 983.221316,220.60597 C972.518522,227.540796 959.596855,230.942786 944.456317,230.942786 C933.884045,230.942786 924.48647,229.241791 916.002548,225.839801 C907.518626,222.437811 900.339922,217.727363 894.466438,211.446766 C888.592953,205.166169 884.024687,197.838806 880.892162,189.072139 C877.759637,180.436318 876.062853,170.884577 876.062853,160.547761 C876.062853,150.472637 877.759637,141.182587 881.022684,132.546766 C884.285731,123.910945 888.984519,116.452736 894.988525,110.041294 C900.992532,103.760697 908.301757,98.7885572 916.655157,95.1248756 C925.008557,91.461194 934.275611,89.6293532 944.456317,89.6293532 C955.811721,89.6293532 965.731384,91.8537313 974.215306,96.3024876 C982.699228,100.751244 989.616888,106.639303 995.098807,114.097512 C1000.58073,121.555721 1004.49638,130.060697 1006.84578,139.481592 C1009.32569,149.033333 1010.10882,158.977612 1009.45621,169.314428 L912.870023,169.314428 C913.522632,181.352239 916.524635,189.98806 922.006554,195.352736 L922.006554,195.352736 Z M963.512512,124.69602 C959.074768,119.854726 952.418152,117.499502 943.412142,117.499502 C937.538658,117.499502 932.709348,118.546269 928.793692,120.508955 C924.878036,122.471642 921.745511,124.957711 919.526639,127.967164 C917.177245,130.976617 915.610982,133.98607 914.566807,137.257214 C913.653154,140.528358 913.000545,143.537811 912.870023,146.154726 L972.649043,146.154726 C970.952259,136.733831 967.950256,129.668159 963.512512,124.69602 L963.512512,124.69602 Z" id="XMLID_290_"></path>
                    <path d="M1032.29754,72.619403 L1032.29754,42.2631841 L1069.10471,42.2631841 L1069.10471,72.619403 L1032.29754,72.619403 L1032.29754,72.619403 Z M1068.97419,93.2930348 L1068.97419,227.40995 L1032.16702,227.40995 L1032.16702,93.2930348 L1068.97419,93.2930348 L1068.97419,93.2930348 Z" id="XMLID_285_"></path>
                    <path d="M1224.42575,237.354229 C1222.99001,244.289055 1219.85748,250.700498 1215.02817,256.719403 C1210.19886,262.738308 1203.15068,267.710448 1194.01415,271.897512 C1184.87762,276.084577 1172.60856,278.178109 1157.20698,278.178109 C1150.68089,278.178109 1144.02427,277.393035 1137.10661,275.69204 C1130.31947,273.991045 1124.05442,271.504975 1118.44198,267.972139 C1112.82954,264.570149 1108.13075,259.990547 1104.47614,254.625871 C1100.82153,249.130348 1098.60266,242.58806 1098.08057,234.999005 L1134.6267,234.999005 C1136.32348,241.933831 1139.71705,246.775124 1144.67688,249.39204 C1149.63671,252.008955 1155.5102,253.448259 1162.03629,253.448259 C1172.34752,253.448259 1179.91779,250.30796 1184.61658,244.158209 C1189.31536,237.877612 1191.66476,230.026866 1191.53423,220.60597 L1191.53423,202.810945 L1191.01215,202.810945 C1187.09649,209.876617 1181.35353,215.110448 1174.0443,218.512438 C1166.73508,221.914428 1159.03429,223.615423 1150.81141,223.615423 C1140.76122,223.615423 1132.14678,221.783582 1124.96808,218.250746 C1117.78937,214.71791 1111.78537,209.876617 1107.08658,203.726866 C1102.38779,197.577114 1098.99422,190.380597 1096.90587,182.268159 C1094.687,174.024876 1093.64283,165.389055 1093.64283,156.229851 C1093.64283,147.59403 1094.94804,139.2199 1097.42796,131.238308 C1099.90788,123.256716 1103.56249,116.060199 1108.3918,109.910448 C1113.22111,103.760697 1119.22511,98.919403 1126.40382,95.2557214 C1133.58252,91.5920398 1141.8054,89.760199 1151.07245,89.760199 C1159.81742,89.760199 1167.64873,91.461194 1174.17482,94.7323383 C1180.83144,98.0034826 1186.44388,103.499005 1190.88163,111.349751 L1191.40371,111.349751 L1191.40371,93.4238806 L1226.38358,93.4238806 L1226.38358,219.035821 C1226.64462,224.269652 1225.86149,230.419403 1224.42575,237.354229 L1224.42575,237.354229 Z M1174.0443,192.735821 C1177.95996,190.642289 1181.35353,187.894527 1183.83344,184.492537 C1186.44388,180.959701 1188.40171,177.165174 1189.70693,172.716418 C1191.01215,168.267662 1191.66476,163.68806 1191.66476,158.846766 C1191.66476,153.351244 1191.14267,148.117413 1190.09849,143.145274 C1189.05432,138.173134 1187.35753,133.855224 1184.87762,130.060697 C1182.3977,126.266169 1179.26518,123.256716 1175.34952,121.032338 C1171.43387,118.80796 1166.34351,117.630348 1160.33951,117.630348 C1155.11863,117.630348 1150.68089,118.677114 1147.02627,120.770647 C1143.24114,122.864179 1140.23914,125.61194 1137.75922,129.144776 C1135.2793,132.677612 1133.452,136.733831 1132.2773,141.313433 C1131.1026,145.893035 1130.58052,150.734328 1130.58052,155.706468 C1130.58052,160.547761 1131.1026,165.389055 1132.01626,170.099502 C1132.92991,174.80995 1134.6267,179.127861 1136.97609,182.922388 C1139.32548,186.716915 1142.32749,189.857214 1146.11262,192.212438 C1149.89776,194.698507 1154.59654,195.876119 1160.33951,195.876119 C1165.56038,195.876119 1170.12865,194.829353 1174.0443,192.735821 L1174.0443,192.735821 Z" id="XMLID_280_"></path>
                    <path d="M1292.94973,42.2631841 L1292.94973,112.00398 L1293.73287,112.00398 C1298.43165,104.153234 1304.30514,98.5268657 1311.61436,94.9940299 C1318.92359,91.461194 1325.97177,89.6293532 1332.88943,89.6293532 C1342.67857,89.6293532 1350.77093,90.9378109 1357.03598,93.6855721 C1363.30103,96.4333333 1368.26086,100.097015 1371.91547,104.807463 C1375.57008,109.51791 1378.05,115.40597 1379.48574,122.20995 C1380.92148,129.01393 1381.70461,136.602985 1381.70461,144.977114 L1381.70461,227.540796 L1344.89744,227.540796 L1344.89744,151.781095 C1344.89744,140.659204 1343.20066,132.41592 1339.67657,127.051244 C1336.283,121.555721 1330.14847,118.938806 1321.27298,118.938806 C1311.2228,118.938806 1304.04409,121.948259 1299.47583,127.836318 C1294.90756,133.855224 1292.68869,143.668657 1292.68869,157.276617 L1292.68869,227.540796 L1255.88152,227.540796 L1255.88152,42.2631841 L1292.94973,42.2631841 L1292.94973,42.2631841 Z" id="XMLID_278_"></path>
                    <path d="M1483.12011,93.2930348 L1483.12011,117.89204 L1456.23261,117.89204 L1456.23261,184.492537 C1456.23261,190.773134 1457.27678,194.829353 1459.36513,196.922886 C1461.45348,199.016418 1465.63018,200.063184 1471.76471,200.063184 C1473.85306,200.063184 1475.81089,199.932338 1477.76872,199.801493 C1479.72654,199.670647 1481.55385,199.408955 1483.25063,199.016418 L1483.25063,227.540796 C1480.11811,228.064179 1476.72454,228.456716 1472.93941,228.587562 C1469.15427,228.718408 1465.49966,228.849254 1461.84505,228.849254 C1456.10208,228.849254 1450.75069,228.456716 1445.66033,227.671642 C1440.56998,226.886567 1436.13224,225.447264 1432.21658,223.09204 C1428.30092,220.867662 1425.29892,217.596517 1423.08005,213.540299 C1420.86118,209.353234 1419.68648,203.988557 1419.68648,197.184577 L1419.68648,118.022886 L1397.36724,118.022886 L1397.36724,93.4238806 L1419.68648,93.4238806 L1419.68648,53.2542289 L1456.49365,53.2542289 L1456.49365,93.4238806 L1483.12011,93.4238806 L1483.12011,93.2930348 Z" id="XMLID_274_"></path>
                    <polygon id="XMLID_271_" points="1542.89913 187.50199 1542.89913 227.40995 1502.30683 227.40995 1502.30683 187.50199"></polygon>
                    <path d="M1508.7024,5.36467662 L1508.7024,27.0850746 L1502.04579,27.0850746 L1502.04579,5.36467662 L1494.34499,5.36467662 L1494.34499,0.130845771 L1516.27267,0.130845771 L1516.27267,5.36467662 L1508.7024,5.36467662 L1508.7024,5.36467662 Z M1544.72644,27.0850746 L1544.72644,7.98159204 L1544.59592,7.98159204 L1537.67826,27.0850746 L1533.10999,27.0850746 L1526.19233,7.98159204 L1526.06181,7.98159204 L1526.06181,27.0850746 L1519.79676,27.0850746 L1519.79676,0.130845771 L1528.67225,0.130845771 L1535.32886,17.7950249 L1541.98548,0.130845771 L1550.86097,0.130845771 L1550.86097,27.0850746 L1544.72644,27.0850746 L1544.72644,27.0850746 Z" id="XMLID_265_"></path>
                    <path d="M8.41474555,288.508383 L20.9291833,288.508383 C22.7695511,288.508383 24.3031678,287.985659 25.5300796,286.940197 C26.7569914,285.894734 27.3704381,284.38806 27.3704381,282.420129 C27.3704381,280.206208 26.818336,278.648287 25.7141154,277.746318 C24.6098948,276.84435 23.0149334,276.393373 20.9291833,276.393373 L8.41474555,276.393373 L8.41474555,288.508383 Z M0.746585149,270.120627 L22.0333984,270.120627 C25.9595161,270.120627 29.1085426,271.022581 31.480572,272.826517 C33.8526015,274.630454 35.0385985,277.356815 35.0385985,281.005687 C35.0385985,283.219607 34.4967206,285.115763 33.4129485,286.694206 C32.3291763,288.27265 30.7853355,289.492339 28.7813796,290.353308 L28.7813796,290.476303 C31.4805855,291.050283 33.5254078,292.331469 34.9159079,294.319898 C36.306408,296.308327 37.0016475,298.798952 37.0016475,301.791846 C37.0016475,303.513785 36.6949241,305.122954 36.0814683,306.6194 C35.4680124,308.115847 34.5069459,309.407283 33.19824,310.493744 C31.889534,311.580205 30.2127797,312.441162 28.1679267,313.076639 C26.1230737,313.712117 23.6897352,314.029851 20.867838,314.029851 L0.746585149,314.029851 L0.746585149,270.120627 Z M8.41474555,307.757104 L21.9720531,307.757104 C24.3031855,307.757104 26.1128534,307.152385 27.4011107,305.942928 C28.689368,304.733471 29.3334871,303.021806 29.3334871,300.807886 C29.3334871,298.634963 28.689368,296.964296 27.4011107,295.795838 C26.1128534,294.62738 24.3031855,294.043159 21.9720531,294.043159 L8.41474555,294.043159 L8.41474555,307.757104 Z M43.1361758,270.120627 L50.1295381,270.120627 L50.1295381,314.029851 L43.1361758,314.029851 L43.1361758,270.120627 Z M72.2751854,314.890816 C69.7395676,314.890816 67.480039,314.470588 65.4965316,313.630117 C63.5130241,312.789646 61.8362698,311.631456 60.4662183,310.155507 C59.0961669,308.679559 58.0533075,306.916648 57.3376089,304.866721 C56.6219103,302.816793 56.2640664,300.561907 56.2640664,298.101995 C56.2640664,295.683081 56.6219103,293.448693 57.3376089,291.398766 C58.0533075,289.348838 59.0961669,287.585928 60.4662183,286.10998 C61.8362698,284.634032 63.5130241,283.475841 65.4965316,282.635371 C67.480039,281.7949 69.7395676,281.374672 72.2751854,281.374672 C74.8108031,281.374672 77.0703317,281.7949 79.0538392,282.635371 C81.0373466,283.475841 82.7141009,284.634032 84.0841524,286.10998 C85.4542039,287.585928 86.4970632,289.348838 87.2127618,291.398766 C87.9284604,293.448693 88.2863043,295.683081 88.2863043,298.101995 C88.2863043,300.561907 87.9284604,302.816793 87.2127618,304.866721 C86.4970632,306.916648 85.4542039,308.679559 84.0841524,310.155507 C82.7141009,311.631456 81.0373466,312.789646 79.0538392,313.630117 C77.0703317,314.470588 74.8108031,314.890816 72.2751854,314.890816 L72.2751854,314.890816 Z M72.2751854,309.35604 C73.8292736,309.35604 75.1788564,309.028057 76.323974,308.37208 C77.4690917,307.716103 78.40971,306.855147 79.1458571,305.789184 C79.8820041,304.723222 80.423882,303.524032 80.7715071,302.19158 C81.1191321,300.859127 81.292942,299.495946 81.292942,298.101995 C81.292942,296.749043 81.1191321,295.396111 80.7715071,294.043159 C80.423882,292.690207 79.8820041,291.491018 79.1458571,290.445555 C78.40971,289.400092 77.4690917,288.549385 76.323974,287.893408 C75.1788564,287.237431 73.8292736,286.909448 72.2751854,286.909448 C70.7210971,286.909448 69.3715143,287.237431 68.2263967,287.893408 C67.081279,288.549385 66.1406607,289.400092 65.4045136,290.445555 C64.6683666,291.491018 64.1264887,292.690207 63.7788636,294.043159 C63.4312386,295.396111 63.2574287,296.749043 63.2574287,298.101995 C63.2574287,299.495946 63.4312386,300.859127 63.7788636,302.19158 C64.1264887,303.524032 64.6683666,304.723222 65.4045136,305.789184 C66.1406607,306.855147 67.081279,307.716103 68.2263967,308.37208 C69.3715143,309.028057 70.7210971,309.35604 72.2751854,309.35604 L72.2751854,309.35604 Z M115.52361,292.874706 C115.237331,290.906776 114.450074,289.420602 113.161817,288.416137 C111.873559,287.411672 110.247925,286.909448 108.284867,286.909448 C107.385131,286.909448 106.424065,287.06319 105.401638,287.370679 C104.379212,287.678168 103.438594,288.252139 102.579755,289.092609 C101.720917,289.93308 101.005229,291.101521 100.43267,292.597968 C99.8601115,294.094414 99.5738364,296.052066 99.5738364,298.47098 C99.5738364,299.782934 99.727198,301.094867 100.033926,302.406821 C100.340654,303.718775 100.831411,304.887216 101.506213,305.912179 C102.181014,306.937142 103.050064,307.767351 104.113387,308.402828 C105.176711,309.038306 106.464949,309.35604 107.97814,309.35604 C110.022993,309.35604 111.709972,308.720572 113.039126,307.449617 C114.36828,306.178662 115.196434,304.395251 115.52361,302.099333 L122.516972,302.099333 C121.862619,306.240186 120.29833,309.407276 117.824058,311.600699 C115.349786,313.794122 112.067846,314.890816 107.97814,314.890816 C105.48342,314.890816 103.285236,314.470588 101.383522,313.630117 C99.4818089,312.789646 97.8766234,311.641705 96.5679175,310.186256 C95.2592116,308.730808 94.2674728,306.998645 93.5926713,304.989716 C92.9178698,302.980788 92.5804741,300.807897 92.5804741,298.47098 C92.5804741,296.093065 92.9076457,293.858677 93.5619986,291.767751 C94.2163515,289.676825 95.1978663,287.862667 96.5065722,286.325221 C97.8152782,284.787776 99.4409119,283.578337 101.383522,282.696868 C103.326133,281.815399 105.606109,281.374672 108.223521,281.374672 C110.063889,281.374672 111.812212,281.61041 113.468543,282.081893 C115.124874,282.553376 116.597146,283.260591 117.885403,284.203557 C119.173661,285.146523 120.226744,286.335464 121.044685,287.770413 C121.862627,289.205362 122.353384,290.906776 122.516972,292.874706 L115.52361,292.874706 Z M128.406119,270.120627 L135.399482,270.120627 L135.399482,295.088617 L148.03661,282.235637 L156.62495,282.235637 L144.478584,293.920164 L157.79051,314.029851 L149.263516,314.029851 L139.570961,298.593975 L135.399482,302.652811 L135.399482,314.029851 L128.406119,314.029851 L128.406119,270.120627 Z M182.574005,292.874706 C182.287726,290.906776 181.500469,289.420602 180.212211,288.416137 C178.923954,287.411672 177.298321,286.909448 175.335261,286.909448 C174.435526,286.909448 173.474459,287.06319 172.452033,287.370679 C171.429607,287.678168 170.488988,288.252139 169.63015,289.092609 C168.771312,289.93308 168.055624,291.101521 167.483065,292.597968 C166.910506,294.094414 166.624231,296.052066 166.624231,298.47098 C166.624231,299.782934 166.777593,301.094867 167.084321,302.406821 C167.391048,303.718775 167.881805,304.887216 168.556607,305.912179 C169.231409,306.937142 170.100458,307.767351 171.163782,308.402828 C172.227106,309.038306 173.515344,309.35604 175.028535,309.35604 C177.073388,309.35604 178.760367,308.720572 180.089521,307.449617 C181.418674,306.178662 182.246828,304.395251 182.574005,302.099333 L189.567367,302.099333 C188.913014,306.240186 187.348725,309.407276 184.874453,311.600699 C182.400181,313.794122 179.118241,314.890816 175.028535,314.890816 C172.533814,314.890816 170.33563,314.470588 168.433917,313.630117 C166.532204,312.789646 164.927018,311.641705 163.618312,310.186256 C162.309606,308.730808 161.317868,306.998645 160.643066,304.989716 C159.968264,302.980788 159.630869,300.807897 159.630869,298.47098 C159.630869,296.093065 159.95804,293.858677 160.612393,291.767751 C161.266746,289.676825 162.24826,287.862667 163.556967,286.325221 C164.865673,284.787776 166.491306,283.578337 168.433917,282.696868 C170.376527,281.815399 172.656504,281.374672 175.273916,281.374672 C177.114283,281.374672 178.862607,281.61041 180.518938,282.081893 C182.175268,282.553376 183.64754,283.260591 184.935798,284.203557 C186.224055,285.146523 187.277139,286.335464 188.09508,287.770413 C188.913021,289.205362 189.403779,290.906776 189.567367,292.874706 L182.574005,292.874706 Z M195.272478,270.120627 L202.26584,270.120627 L202.26584,286.417468 L202.388531,286.417468 C203.247369,284.982519 204.525383,283.783329 206.222611,282.819863 C207.919839,281.856397 209.8113,281.374672 211.89705,281.374672 C215.3733,281.374672 218.113362,282.276626 220.117318,284.080562 C222.121274,285.884499 223.123237,288.590362 223.123237,292.198234 L223.123237,314.029851 L216.129874,314.029851 L216.129874,294.043159 C216.04808,291.542248 215.516427,289.728089 214.534897,288.600629 C213.553367,287.473169 212.019751,286.909448 209.934001,286.909448 C208.747986,286.909448 207.684678,287.124686 206.744046,287.555172 C205.803414,287.985657 205.005933,288.580126 204.35158,289.3386 C203.697227,290.097073 203.186021,290.988778 202.817948,292.013741 C202.449875,293.038705 202.26584,294.12515 202.26584,295.273109 L202.26584,314.029851 L195.272478,314.029851 L195.272478,270.120627 Z M257.047178,306.957637 C257.047178,307.818606 257.159644,308.433576 257.384577,308.802562 C257.609511,309.171549 258.049148,309.35604 258.703501,309.35604 L259.439644,309.35604 C259.725923,309.35604 260.053096,309.315042 260.421169,309.233045 L260.421169,314.091348 C260.175786,314.173345 259.858839,314.26559 259.470317,314.368087 C259.081795,314.470584 258.683055,314.562829 258.274084,314.644826 C257.865113,314.726823 257.456149,314.788321 257.047178,314.829318 C256.638208,314.870316 256.290587,314.890816 256.004309,314.890816 C254.572912,314.890816 253.386914,314.603831 252.446282,314.029851 C251.50565,313.455871 250.892202,312.451422 250.605924,311.016473 C249.215423,312.369424 247.507997,313.353375 245.483592,313.968353 C243.459188,314.583331 241.506383,314.890816 239.625118,314.890816 C238.193721,314.890816 236.82369,314.696076 235.514984,314.30659 C234.206278,313.917104 233.050954,313.343133 232.048975,312.584659 C231.046997,311.826186 230.249517,310.862734 229.656509,309.694276 C229.063502,308.525818 228.767003,307.162637 228.767003,305.604692 C228.767003,303.636761 229.124847,302.037842 229.840545,300.807886 C230.556244,299.577929 231.496863,298.614477 232.662428,297.917502 C233.827994,297.220528 235.136681,296.718302 236.588526,296.410813 C238.040372,296.103325 239.50242,295.867586 240.974714,295.703592 C242.242523,295.457601 243.448968,295.28336 244.594086,295.180863 C245.739204,295.078366 246.751391,294.904126 247.630677,294.658134 C248.509964,294.412143 249.205203,294.032913 249.716417,293.52043 C250.227631,293.007948 250.483233,292.239237 250.483233,291.214274 C250.483233,290.312305 250.268527,289.574343 249.839108,289.000363 C249.409688,288.426383 248.878035,287.985656 248.24413,287.678167 C247.610226,287.370678 246.904762,287.165688 246.127718,287.063192 C245.350674,286.960695 244.614537,286.909448 243.919288,286.909448 C241.956228,286.909448 240.340819,287.319427 239.07301,288.139398 C237.805202,288.959369 237.089514,290.230304 236.925925,291.952244 L229.932563,291.952244 C230.055254,289.902316 230.546012,288.200902 231.40485,286.84795 C232.263688,285.494998 233.357669,284.408553 234.686823,283.588582 C236.015977,282.768611 237.518922,282.19464 239.195701,281.866652 C240.87248,281.538663 242.590131,281.374672 244.348705,281.374672 C245.902794,281.374672 247.43641,281.538663 248.949601,281.866652 C250.462792,282.19464 251.822599,282.727613 253.029062,283.465587 C254.235526,284.203561 255.206816,285.156763 255.942963,286.325221 C256.679111,287.493679 257.047178,288.918358 257.047178,290.599299 L257.047178,306.957637 Z M250.053816,298.101995 C248.990492,298.79897 247.681807,299.219199 246.127718,299.362694 C244.573629,299.506189 243.019565,299.721429 241.465476,300.008418 C240.729329,300.131413 240.013641,300.305655 239.318392,300.531147 C238.623142,300.756639 238.009694,301.064123 237.478033,301.453609 C236.946372,301.843095 236.527182,302.35557 236.220455,302.991047 C235.913727,303.626525 235.760365,304.395236 235.760365,305.297204 C235.760365,306.076176 235.985296,306.732144 236.435163,307.265124 C236.88503,307.798105 237.426909,308.218335 238.060813,308.525823 C238.694718,308.833312 239.389957,309.048552 240.146553,309.171547 C240.903149,309.294542 241.588164,309.35604 242.20162,309.35604 C242.978664,309.35604 243.817041,309.253544 244.716776,309.048552 C245.616512,308.84356 246.465113,308.495077 247.262606,308.003095 C248.060098,307.511112 248.724666,306.885894 249.256327,306.12742 C249.787989,305.368947 250.053816,304.436244 250.053816,303.329284 L250.053816,298.101995 Z M264.776684,270.120627 L271.770046,270.120627 L271.770046,276.762358 L264.776684,276.762358 L264.776684,270.120627 Z M264.776684,282.235637 L271.770046,282.235637 L271.770046,314.029851 L264.776684,314.029851 L264.776684,282.235637 Z M279.376861,282.235637 L286.002152,282.235637 L286.002152,286.909448 L286.124843,287.032443 C287.188166,285.269505 288.578645,283.885826 290.296322,282.881361 C292.013999,281.876896 293.915683,281.374672 296.001433,281.374672 C299.477684,281.374672 302.217745,282.276626 304.221701,284.080562 C306.225657,285.884499 307.22762,288.590362 307.22762,292.198234 L307.22762,314.029851 L300.234258,314.029851 L300.234258,294.043159 C300.152464,291.542248 299.62081,289.728089 298.63928,288.600629 C297.657751,287.473169 296.124134,286.909448 294.038384,286.909448 C292.85237,286.909448 291.789061,287.124686 290.848429,287.555172 C289.907797,287.985657 289.110317,288.580126 288.455963,289.3386 C287.80161,290.097073 287.290404,290.988778 286.922331,292.013741 C286.554258,293.038705 286.370224,294.12515 286.370224,295.273109 L286.370224,314.029851 L279.376861,314.029851 L279.376861,282.235637 Z M336.918737,303.821264 C337.123222,305.871192 337.900255,307.306118 339.249858,308.12609 C340.599461,308.946061 342.21487,309.35604 344.096135,309.35604 C344.750488,309.35604 345.496848,309.304793 346.335238,309.202296 C347.173628,309.099799 347.960884,308.905059 348.697031,308.61807 C349.433179,308.33108 350.036401,307.910851 350.506717,307.357371 C350.977033,306.80389 351.191739,306.076177 351.150843,305.174209 C351.109946,304.272241 350.782774,303.534278 350.169318,302.960299 C349.555863,302.386319 348.768606,301.925093 347.807525,301.576604 C346.846444,301.228116 345.752464,300.930882 344.525552,300.684891 C343.29864,300.438899 342.051299,300.172412 340.78349,299.885423 C339.474784,299.598434 338.217218,299.249951 337.010755,298.839965 C335.804292,298.42998 334.720536,297.876507 333.759455,297.179532 C332.798374,296.482557 332.031566,295.590851 331.459007,294.504391 C330.886448,293.41793 330.600173,292.075247 330.600173,290.476303 C330.600173,288.754364 331.019361,287.309187 331.857751,286.140729 C332.696142,284.972271 333.759448,284.029318 335.047706,283.311843 C336.335963,282.594369 337.767339,282.092143 339.341876,281.805154 C340.916412,281.518165 342.419357,281.374672 343.850754,281.374672 C345.486637,281.374672 347.050926,281.548912 348.543668,281.8974 C350.03641,282.245889 351.385994,282.80961 352.592457,283.588582 C353.79892,284.367554 354.800883,285.382254 355.598376,286.632709 C356.395868,287.883164 356.896851,289.389839 357.101335,291.152776 L349.801247,291.152776 C349.47407,289.471836 348.707262,288.344393 347.500798,287.770413 C346.294335,287.196433 344.914081,286.909448 343.359992,286.909448 C342.869227,286.909448 342.286453,286.950446 341.611651,287.032443 C340.936849,287.11444 340.302955,287.268182 339.709947,287.493674 C339.11694,287.719166 338.615959,288.047149 338.206988,288.477634 C337.798017,288.90812 337.593535,289.471841 337.593535,290.168816 C337.593535,291.029785 337.890034,291.726751 338.483042,292.259731 C339.07605,292.792712 339.853082,293.23344 340.814163,293.581928 C341.775243,293.930416 342.869223,294.22765 344.096135,294.473642 C345.323047,294.719633 346.590836,294.98612 347.899543,295.273109 C349.167351,295.560099 350.414693,295.908582 351.641605,296.318567 C352.868517,296.728553 353.962497,297.282025 354.923578,297.979 C355.884659,298.675975 356.661691,299.55743 357.254698,300.623393 C357.847706,301.689356 358.144205,303.001289 358.144205,304.559234 C358.144205,306.445168 357.714792,308.044086 356.855954,309.35604 C355.997116,310.667994 354.882688,311.733939 353.512636,312.55391 C352.142585,313.373882 350.619192,313.968352 348.942413,314.337338 C347.265633,314.706325 345.609328,314.890816 343.973445,314.890816 C341.969489,314.890816 340.118925,314.665327 338.421697,314.214343 C336.724468,313.76336 335.252196,313.076645 334.004836,312.154177 C332.757476,311.231709 331.775961,310.083767 331.060263,308.710316 C330.344564,307.336864 329.966271,305.707197 329.925375,303.821264 L336.918737,303.821264 Z M378.020077,314.890816 C375.48446,314.890816 373.22493,314.470588 371.241423,313.630117 C369.257916,312.789646 367.581161,311.631456 366.21111,310.155507 C364.841058,308.679559 363.798199,306.916648 363.0825,304.866721 C362.366802,302.816793 362.008958,300.561907 362.008958,298.101995 C362.008958,295.683081 362.366802,293.448693 363.0825,291.398766 C363.798199,289.348838 364.841058,287.585928 366.21111,286.10998 C367.581161,284.634032 369.257916,283.475841 371.241423,282.635371 C373.22493,281.7949 375.48446,281.374672 378.020077,281.374672 C380.555694,281.374672 382.815224,281.7949 384.798731,282.635371 C386.782238,283.475841 388.458992,284.634032 389.829044,286.10998 C391.199095,287.585928 392.241955,289.348838 392.957653,291.398766 C393.673352,293.448693 394.031196,295.683081 394.031196,298.101995 C394.031196,300.561907 393.673352,302.816793 392.957653,304.866721 C392.241955,306.916648 391.199095,308.679559 389.829044,310.155507 C388.458992,311.631456 386.782238,312.789646 384.798731,313.630117 C382.815224,314.470588 380.555694,314.890816 378.020077,314.890816 L378.020077,314.890816 Z M378.020077,309.35604 C379.574166,309.35604 380.923747,309.028057 382.068866,308.37208 C383.213984,307.716103 384.154601,306.855147 384.890749,305.789184 C385.626896,304.723222 386.168773,303.524032 386.516399,302.19158 C386.864024,300.859127 387.037833,299.495946 387.037833,298.101995 C387.037833,296.749043 386.864024,295.396111 386.516399,294.043159 C386.168773,292.690207 385.626896,291.491018 384.890749,290.445555 C384.154601,289.400092 383.213984,288.549385 382.068866,287.893408 C380.923747,287.237431 379.574166,286.909448 378.020077,286.909448 C376.465988,286.909448 375.116406,287.237431 373.971288,287.893408 C372.82617,288.549385 371.885552,289.400092 371.149405,290.445555 C370.413258,291.491018 369.871381,292.690207 369.523755,294.043159 C369.17613,295.396111 369.00232,296.749043 369.00232,298.101995 C369.00232,299.495946 369.17613,300.859127 369.523755,302.19158 C369.871381,303.524032 370.413258,304.723222 371.149405,305.789184 C371.885552,306.855147 372.82617,307.716103 373.971288,308.37208 C375.116406,309.028057 376.465988,309.35604 378.020077,309.35604 L378.020077,309.35604 Z M400.043033,270.120627 L407.036396,270.120627 L407.036396,314.029851 L400.043033,314.029851 L400.043033,270.120627 Z M442.493969,314.029851 L435.623298,314.029851 L435.623298,309.60203 L435.500607,309.60203 C434.641769,311.200973 433.363755,312.482159 431.666527,313.445624 C429.969299,314.40909 428.241424,314.890816 426.482851,314.890816 C422.31135,314.890816 419.295238,313.855618 417.434421,311.785192 C415.573605,309.714765 414.643211,306.588673 414.643211,302.406821 L414.643211,282.235637 L421.636573,282.235637 L421.636573,301.730348 C421.636573,304.518249 422.168227,306.48615 423.231551,307.634109 C424.294874,308.782069 425.787594,309.35604 427.709756,309.35604 C429.182051,309.35604 430.408943,309.130551 431.390473,308.679567 C432.372003,308.228584 433.169484,307.623864 433.782939,306.865391 C434.396395,306.106917 434.836032,305.194714 435.101863,304.128751 C435.367694,303.062789 435.500607,301.914847 435.500607,300.684891 L435.500607,282.235637 L442.493969,282.235637 L442.493969,314.029851 Z M446.665449,282.235637 L451.941143,282.235637 L451.941143,272.703522 L458.934505,272.703522 L458.934505,282.235637 L465.25307,282.235637 L465.25307,287.462925 L458.934505,287.462925 L458.934505,304.436239 C458.934505,305.174213 458.965178,305.809681 459.026523,306.342662 C459.087869,306.875642 459.231007,307.326621 459.45594,307.695607 C459.680874,308.064593 460.01827,308.34133 460.468137,308.525823 C460.918005,308.710317 461.531452,308.802562 462.308496,308.802562 C462.799261,308.802562 463.290018,308.792313 463.780783,308.771813 C464.271548,308.751314 464.762305,308.679567 465.25307,308.556572 L465.25307,313.968353 C464.476026,314.05035 463.719441,314.132346 462.983294,314.214343 C462.247147,314.29634 461.490562,314.337338 460.713519,314.337338 C458.873151,314.337338 457.390655,314.163098 456.265986,313.814609 C455.141316,313.466121 454.262043,312.953648 453.628138,312.277172 C452.994234,311.600695 452.564821,310.749988 452.339887,309.725025 C452.114954,308.700062 451.982039,307.531621 451.941143,306.219667 L451.941143,287.462925 L446.665449,287.462925 L446.665449,282.235637 Z M470.467419,270.120627 L477.460781,270.120627 L477.460781,276.762358 L470.467419,276.762358 L470.467419,270.120627 Z M470.467419,282.235637 L477.460781,282.235637 L477.460781,314.029851 L470.467419,314.029851 L470.467419,282.235637 Z M499.606428,314.890816 C497.070811,314.890816 494.811281,314.470588 492.827774,313.630117 C490.844267,312.789646 489.167513,311.631456 487.797461,310.155507 C486.427409,308.679559 485.38455,306.916648 484.668852,304.866721 C483.953153,302.816793 483.595309,300.561907 483.595309,298.101995 C483.595309,295.683081 483.953153,293.448693 484.668852,291.398766 C485.38455,289.348838 486.427409,287.585928 487.797461,286.10998 C489.167513,284.634032 490.844267,283.475841 492.827774,282.635371 C494.811281,281.7949 497.070811,281.374672 499.606428,281.374672 C502.142045,281.374672 504.401575,281.7949 506.385082,282.635371 C508.368589,283.475841 510.045344,284.634032 511.415395,286.10998 C512.785447,287.585928 513.828306,289.348838 514.544005,291.398766 C515.259703,293.448693 515.617547,295.683081 515.617547,298.101995 C515.617547,300.561907 515.259703,302.816793 514.544005,304.866721 C513.828306,306.916648 512.785447,308.679559 511.415395,310.155507 C510.045344,311.631456 508.368589,312.789646 506.385082,313.630117 C504.401575,314.470588 502.142045,314.890816 499.606428,314.890816 L499.606428,314.890816 Z M499.606428,309.35604 C501.160517,309.35604 502.510099,309.028057 503.655217,308.37208 C504.800335,307.716103 505.740953,306.855147 506.4771,305.789184 C507.213247,304.723222 507.755124,303.524032 508.10275,302.19158 C508.450375,300.859127 508.624185,299.495946 508.624185,298.101995 C508.624185,296.749043 508.450375,295.396111 508.10275,294.043159 C507.755124,292.690207 507.213247,291.491018 506.4771,290.445555 C505.740953,289.400092 504.800335,288.549385 503.655217,287.893408 C502.510099,287.237431 501.160517,286.909448 499.606428,286.909448 C498.052339,286.909448 496.702757,287.237431 495.557639,287.893408 C494.412521,288.549385 493.471904,289.400092 492.735756,290.445555 C491.999609,291.491018 491.457732,292.690207 491.110106,294.043159 C490.762481,295.396111 490.588671,296.749043 490.588671,298.101995 C490.588671,299.495946 490.762481,300.859127 491.110106,302.19158 C491.457732,303.524032 491.999609,304.723222 492.735756,305.789184 C493.471904,306.855147 494.412521,307.716103 495.557639,308.37208 C496.702757,309.028057 498.052339,309.35604 499.606428,309.35604 L499.606428,309.35604 Z M521.445349,282.235637 L528.07064,282.235637 L528.07064,286.909448 L528.19333,287.032443 C529.256654,285.269505 530.647132,283.885826 532.364809,282.881361 C534.082486,281.876896 535.984171,281.374672 538.069921,281.374672 C541.546171,281.374672 544.286233,282.276626 546.290189,284.080562 C548.294145,285.884499 549.296108,288.590362 549.296108,292.198234 L549.296108,314.029851 L542.302745,314.029851 L542.302745,294.043159 C542.220951,291.542248 541.689298,289.728089 540.707768,288.600629 C539.726238,287.473169 538.192622,286.909448 536.106872,286.909448 C534.920857,286.909448 533.857549,287.124686 532.916917,287.555172 C531.976285,287.985657 531.178804,288.580126 530.524451,289.3386 C529.870098,290.097073 529.358892,290.988778 528.990819,292.013741 C528.622746,293.038705 528.438711,294.12515 528.438711,295.273109 L528.438711,314.029851 L521.445349,314.029851 L521.445349,282.235637 Z M561.933236,303.821264 C562.137721,305.871192 562.914754,307.306118 564.264357,308.12609 C565.613959,308.946061 567.229369,309.35604 569.110634,309.35604 C569.764987,309.35604 570.511346,309.304793 571.349737,309.202296 C572.188127,309.099799 572.975383,308.905059 573.71153,308.61807 C574.447678,308.33108 575.0509,307.910851 575.521216,307.357371 C575.991532,306.80389 576.206238,306.076177 576.165342,305.174209 C576.124445,304.272241 575.797272,303.534278 575.183817,302.960299 C574.570362,302.386319 573.783104,301.925093 572.822024,301.576604 C571.860943,301.228116 570.766963,300.930882 569.540051,300.684891 C568.313139,300.438899 567.065797,300.172412 565.797989,299.885423 C564.489282,299.598434 563.231717,299.249951 562.025254,298.839965 C560.81879,298.42998 559.735035,297.876507 558.773954,297.179532 C557.812873,296.482557 557.046065,295.590851 556.473506,294.504391 C555.900947,293.41793 555.614672,292.075247 555.614672,290.476303 C555.614672,288.754364 556.03386,287.309187 556.87225,286.140729 C557.71064,284.972271 558.773947,284.029318 560.062205,283.311843 C561.350462,282.594369 562.781838,282.092143 564.356375,281.805154 C565.930911,281.518165 567.433856,281.374672 568.865253,281.374672 C570.501136,281.374672 572.065425,281.548912 573.558167,281.8974 C575.050909,282.245889 576.400492,282.80961 577.606956,283.588582 C578.813419,284.367554 579.815382,285.382254 580.612875,286.632709 C581.410367,287.883164 581.911349,289.389839 582.115834,291.152776 L574.815745,291.152776 C574.488569,289.471836 573.721761,288.344393 572.515297,287.770413 C571.308834,287.196433 569.928579,286.909448 568.374491,286.909448 C567.883726,286.909448 567.300952,286.950446 566.62615,287.032443 C565.951348,287.11444 565.317454,287.268182 564.724446,287.493674 C564.131438,287.719166 563.630458,288.047149 563.221487,288.477634 C562.812516,288.90812 562.608034,289.471841 562.608034,290.168816 C562.608034,291.029785 562.904533,291.726751 563.497541,292.259731 C564.090548,292.792712 564.86758,293.23344 565.828661,293.581928 C566.789742,293.930416 567.883722,294.22765 569.110634,294.473642 C570.337546,294.719633 571.605335,294.98612 572.914042,295.273109 C574.18185,295.560099 575.429192,295.908582 576.656104,296.318567 C577.883016,296.728553 578.976996,297.282025 579.938076,297.979 C580.899157,298.675975 581.676189,299.55743 582.269197,300.623393 C582.862205,301.689356 583.158704,303.001289 583.158704,304.559234 C583.158704,306.445168 582.729291,308.044086 581.870453,309.35604 C581.011615,310.667994 579.897187,311.733939 578.527135,312.55391 C577.157083,313.373882 575.633691,313.968352 573.956911,314.337338 C572.280132,314.706325 570.623826,314.890816 568.987943,314.890816 C566.983987,314.890816 565.133423,314.665327 563.436195,314.214343 C561.738967,313.76336 560.266695,313.076645 559.019335,312.154177 C557.771975,311.231709 556.79046,310.083767 556.074761,308.710316 C555.359063,307.336864 554.98077,305.707197 554.939874,303.821264 L561.933236,303.821264 Z M602.421123,282.235637 L607.635472,282.235637 L607.635472,279.591244 C607.635472,277.582315 607.88085,275.952647 608.371615,274.702192 C608.86238,273.451736 609.516723,272.488285 610.334664,271.811808 C611.152606,271.135332 612.083,270.684355 613.125875,270.458863 C614.16875,270.233371 615.262729,270.120627 616.407847,270.120627 C618.657186,270.120627 620.293044,270.26412 621.31547,270.551109 L621.31547,276.024388 C620.865603,275.901393 620.38507,275.809147 619.873856,275.747649 C619.362642,275.686152 618.75942,275.655403 618.06417,275.655403 C617.123538,275.655403 616.315833,275.880892 615.641031,276.331876 C614.966229,276.782859 614.628834,277.664315 614.628834,278.976269 L614.628834,282.235637 L620.579327,282.235637 L620.579327,287.462925 L614.628834,287.462925 L614.628834,314.029851 L607.635472,314.029851 L607.635472,287.462925 L602.421123,287.462925 L602.421123,282.235637 Z M639.412329,314.890816 C636.876711,314.890816 634.617182,314.470588 632.633675,313.630117 C630.650168,312.789646 628.973413,311.631456 627.603362,310.155507 C626.23331,308.679559 625.190451,306.916648 624.474752,304.866721 C623.759054,302.816793 623.40121,300.561907 623.40121,298.101995 C623.40121,295.683081 623.759054,293.448693 624.474752,291.398766 C625.190451,289.348838 626.23331,287.585928 627.603362,286.10998 C628.973413,284.634032 630.650168,283.475841 632.633675,282.635371 C634.617182,281.7949 636.876711,281.374672 639.412329,281.374672 C641.947946,281.374672 644.207475,281.7949 646.190982,282.635371 C648.174489,283.475841 649.851244,284.634032 651.221296,286.10998 C652.591347,287.585928 653.634207,289.348838 654.349905,291.398766 C655.065603,293.448693 655.423447,295.683081 655.423447,298.101995 C655.423447,300.561907 655.065603,302.816793 654.349905,304.866721 C653.634207,306.916648 652.591347,308.679559 651.221296,310.155507 C649.851244,311.631456 648.174489,312.789646 646.190982,313.630117 C644.207475,314.470588 641.947946,314.890816 639.412329,314.890816 L639.412329,314.890816 Z M639.412329,309.35604 C640.966417,309.35604 642.315999,309.028057 643.461117,308.37208 C644.606235,307.716103 645.546853,306.855147 646.283,305.789184 C647.019148,304.723222 647.561025,303.524032 647.90865,302.19158 C648.256276,300.859127 648.430085,299.495946 648.430085,298.101995 C648.430085,296.749043 648.256276,295.396111 647.90865,294.043159 C647.561025,292.690207 647.019148,291.491018 646.283,290.445555 C645.546853,289.400092 644.606235,288.549385 643.461117,287.893408 C642.315999,287.237431 640.966417,286.909448 639.412329,286.909448 C637.85824,286.909448 636.508658,287.237431 635.36354,287.893408 C634.218422,288.549385 633.277804,289.400092 632.541657,290.445555 C631.805509,291.491018 631.263632,292.690207 630.916007,294.043159 C630.568381,295.396111 630.394572,296.749043 630.394572,298.101995 C630.394572,299.495946 630.568381,300.859127 630.916007,302.19158 C631.263632,303.524032 631.805509,304.723222 632.541657,305.789184 C633.277804,306.855147 634.218422,307.716103 635.36354,308.37208 C636.508658,309.028057 637.85824,309.35604 639.412329,309.35604 L639.412329,309.35604 Z M661.251249,282.235637 L667.815195,282.235637 L667.815195,288.385388 L667.937885,288.385388 C668.14237,287.524419 668.54111,286.683961 669.134118,285.86399 C669.727126,285.044019 670.442813,284.295807 671.281203,283.619331 C672.119593,282.942854 673.049987,282.399632 674.072414,281.989647 C675.09484,281.579661 676.137699,281.374672 677.201023,281.374672 C678.018964,281.374672 678.581291,281.395171 678.888018,281.436169 C679.194746,281.477167 679.511694,281.518166 679.83887,281.559164 L679.83887,288.323891 C679.348105,288.241893 678.847124,288.170147 678.335911,288.108649 C677.824697,288.047152 677.323716,288.016403 676.832951,288.016403 C675.646937,288.016403 674.532508,288.252141 673.489633,288.723624 C672.446758,289.195107 671.536812,289.892072 670.759768,290.81454 C669.982724,291.737008 669.369277,292.8747 668.91941,294.227652 C668.469543,295.580604 668.244612,297.138525 668.244612,298.901463 L668.244612,314.029851 L661.251249,314.029851 L661.251249,282.235637 Z M729.221823,312.369418 C729.221823,317.166247 727.882465,320.743317 725.203707,323.100734 C722.524949,325.458151 718.670459,326.636841 713.640121,326.636841 C712.045136,326.636841 710.439951,326.472849 708.824516,326.144861 C707.209082,325.816872 705.73681,325.2634 704.407656,324.484428 C703.078502,323.705456 701.964074,322.680507 701.064338,321.409552 C700.164603,320.138598 699.632949,318.580676 699.469361,316.735741 L706.462723,316.735741 C706.667208,317.719707 707.014828,318.519167 707.505593,319.134144 C707.996358,319.749122 708.579131,320.230848 709.253933,320.579336 C709.928735,320.927824 710.675095,321.153312 711.493036,321.255808 C712.310978,321.358305 713.169803,321.409552 714.069538,321.409552 C716.891436,321.409552 718.956705,320.712588 720.265412,319.318637 C721.574118,317.924686 722.228461,315.915787 722.228461,313.291881 L722.228461,308.433577 L722.10577,308.433577 C721.124241,310.196515 719.784882,311.569945 718.087654,312.55391 C716.390426,313.537876 714.560311,314.029851 712.597251,314.029851 C710.061634,314.029851 707.904346,313.589123 706.125324,312.707654 C704.346302,311.826186 702.874029,310.616747 701.708464,309.079301 C700.542898,307.541855 699.694296,305.768695 699.162634,303.759766 C698.630973,301.750837 698.365146,299.598445 698.365146,297.302527 C698.365146,295.170604 698.692317,293.141205 699.34667,291.214274 C700.001023,289.287342 700.941641,287.596177 702.168553,286.140729 C703.395465,284.68528 704.898409,283.527089 706.677432,282.666119 C708.456454,281.80515 710.470604,281.374672 712.719942,281.374672 C714.723898,281.374672 716.564238,281.7949 718.241017,282.635371 C719.917797,283.475841 721.206035,284.798024 722.10577,286.60196 L722.228461,286.60196 L722.228461,282.235637 L729.221823,282.235637 L729.221823,312.369418 Z M713.701466,308.495075 C715.255555,308.495075 716.574466,308.177341 717.658237,307.541863 C718.742009,306.906386 719.621282,306.065928 720.296084,305.020465 C720.970886,303.975002 721.461643,302.786062 721.768371,301.453609 C722.075099,300.121157 722.228461,298.778474 722.228461,297.425522 C722.228461,296.072571 722.064875,294.760636 721.737699,293.489682 C721.410522,292.218727 720.909541,291.091284 720.234739,290.107318 C719.559937,289.123353 718.680663,288.344393 717.596892,287.770413 C716.51312,287.196433 715.214658,286.909448 713.701466,286.909448 C712.147378,286.909448 710.838692,287.237431 709.775368,287.893408 C708.712044,288.549385 707.85322,289.400092 707.198866,290.445555 C706.544513,291.491018 706.074204,292.679958 705.787925,294.01241 C705.501646,295.344863 705.358508,296.667046 705.358508,297.979 C705.358508,299.290954 705.522094,300.572139 705.84927,301.822595 C706.176447,303.07305 706.677428,304.190244 707.35223,305.174209 C708.027032,306.158174 708.885857,306.957634 709.928732,307.572612 C710.971607,308.18759 712.229172,308.495075 713.701466,308.495075 L713.701466,308.495075 Z M736.460567,270.120627 L743.453929,270.120627 L743.453929,314.029851 L736.460567,314.029851 L736.460567,270.120627 Z M765.599576,314.890816 C763.063959,314.890816 760.804429,314.470588 758.820922,313.630117 C756.837415,312.789646 755.160661,311.631456 753.790609,310.155507 C752.420557,308.679559 751.377698,306.916648 750.662,304.866721 C749.946301,302.816793 749.588457,300.561907 749.588457,298.101995 C749.588457,295.683081 749.946301,293.448693 750.662,291.398766 C751.377698,289.348838 752.420557,287.585928 753.790609,286.10998 C755.160661,284.634032 756.837415,283.475841 758.820922,282.635371 C760.804429,281.7949 763.063959,281.374672 765.599576,281.374672 C768.135193,281.374672 770.394723,281.7949 772.37823,282.635371 C774.361737,283.475841 776.038491,284.634032 777.408543,286.10998 C778.778595,287.585928 779.821454,289.348838 780.537153,291.398766 C781.252851,293.448693 781.610695,295.683081 781.610695,298.101995 C781.610695,300.561907 781.252851,302.816793 780.537153,304.866721 C779.821454,306.916648 778.778595,308.679559 777.408543,310.155507 C776.038491,311.631456 774.361737,312.789646 772.37823,313.630117 C770.394723,314.470588 768.135193,314.890816 765.599576,314.890816 L765.599576,314.890816 Z M765.599576,309.35604 C767.153665,309.35604 768.503247,309.028057 769.648365,308.37208 C770.793483,307.716103 771.7341,306.855147 772.470248,305.789184 C773.206395,304.723222 773.748272,303.524032 774.095898,302.19158 C774.443523,300.859127 774.617333,299.495946 774.617333,298.101995 C774.617333,296.749043 774.443523,295.396111 774.095898,294.043159 C773.748272,292.690207 773.206395,291.491018 772.470248,290.445555 C771.7341,289.400092 770.793483,288.549385 769.648365,287.893408 C768.503247,287.237431 767.153665,286.909448 765.599576,286.909448 C764.045487,286.909448 762.695905,287.237431 761.550787,287.893408 C760.405669,288.549385 759.465052,289.400092 758.728904,290.445555 C757.992757,291.491018 757.45088,292.690207 757.103254,294.043159 C756.755629,295.396111 756.581819,296.749043 756.581819,298.101995 C756.581819,299.495946 756.755629,300.859127 757.103254,302.19158 C757.45088,303.524032 757.992757,304.723222 758.728904,305.789184 C759.465052,306.855147 760.405669,307.716103 761.550787,308.37208 C762.695905,309.028057 764.045487,309.35604 765.599576,309.35604 L765.599576,309.35604 Z M787.622533,270.120627 L794.615895,270.120627 L794.615895,286.35597 L794.738586,286.35597 C795.22935,285.576998 795.822349,284.880032 796.517599,284.265055 C797.212848,283.650077 797.979657,283.127353 798.818047,282.696868 C799.656437,282.266383 800.53571,281.9384 801.455894,281.712908 C802.376079,281.487416 803.286024,281.374672 804.185759,281.374672 C806.68048,281.374672 808.858215,281.815399 810.719032,282.696868 C812.579848,283.578337 814.123689,284.787776 815.350601,286.325221 C816.577513,287.862667 817.497683,289.656326 818.111138,291.706254 C818.724594,293.75618 819.031318,295.94957 819.031318,298.286488 C819.031318,300.418411 818.755267,302.488808 818.203156,304.497736 C817.651046,306.506665 816.812669,308.279825 815.688,309.817271 C814.563331,311.354717 813.14218,312.584654 811.424503,313.507122 C809.706826,314.42959 807.682452,314.890816 805.35132,314.890816 C804.287996,314.890816 803.214464,314.819069 802.130692,314.675575 C801.046921,314.53208 800.014285,314.255344 799.032755,313.845358 C798.051226,313.435373 797.161728,312.9024 796.364236,312.246423 C795.566743,311.590446 794.902175,310.72949 794.370514,309.663527 L794.247823,309.663527 L794.247823,314.029851 L787.622533,314.029851 L787.622533,270.120627 Z M812.037955,298.163493 C812.037955,296.728544 811.853921,295.334614 811.485848,293.981662 C811.117775,292.62871 810.565673,291.42952 809.829525,290.384057 C809.093378,289.338594 808.173208,288.498137 807.068987,287.862659 C805.964767,287.227182 804.696977,286.909448 803.26558,286.909448 C800.320992,286.909448 798.102359,287.934397 796.609617,289.984323 C795.116875,292.034251 794.370514,294.760613 794.370514,298.163493 C794.370514,299.762436 794.564772,301.248611 794.953294,302.622062 C795.341816,303.995514 795.924591,305.174204 796.701635,306.158169 C797.478678,307.142135 798.409074,307.921095 799.492845,308.495075 C800.576616,309.069054 801.834183,309.35604 803.26558,309.35604 C804.860565,309.35604 806.210148,309.028057 807.314369,308.37208 C808.418589,307.716103 809.328535,306.865396 810.044234,305.819933 C810.759932,304.77447 811.271138,303.585529 811.577866,302.253077 C811.884594,300.920625 812.037955,299.557444 812.037955,298.163493 L812.037955,298.163493 Z M851.482973,306.957637 C851.482973,307.818606 851.595438,308.433576 851.820372,308.802562 C852.045305,309.171549 852.484942,309.35604 853.139295,309.35604 L853.875439,309.35604 C854.161717,309.35604 854.48889,309.315042 854.856963,309.233045 L854.856963,314.091348 C854.611581,314.173345 854.294633,314.26559 853.906111,314.368087 C853.517589,314.470584 853.118849,314.562829 852.709878,314.644826 C852.300907,314.726823 851.891943,314.788321 851.482973,314.829318 C851.074002,314.870316 850.726382,314.890816 850.440103,314.890816 C849.008706,314.890816 847.822708,314.603831 846.882076,314.029851 C845.941444,313.455871 845.327997,312.451422 845.041718,311.016473 C843.651217,312.369424 841.943791,313.353375 839.919387,313.968353 C837.894982,314.583331 835.942177,314.890816 834.060912,314.890816 C832.629515,314.890816 831.259484,314.696076 829.950778,314.30659 C828.642072,313.917104 827.486748,313.343133 826.48477,312.584659 C825.482791,311.826186 824.685311,310.862734 824.092304,309.694276 C823.499296,308.525818 823.202797,307.162637 823.202797,305.604692 C823.202797,303.636761 823.560641,302.037842 824.276339,300.807886 C824.992038,299.577929 825.932657,298.614477 827.098222,297.917502 C828.263788,297.220528 829.572475,296.718302 831.024321,296.410813 C832.476166,296.103325 833.938214,295.867586 835.410508,295.703592 C836.678317,295.457601 837.884762,295.28336 839.02988,295.180863 C840.174998,295.078366 841.187185,294.904126 842.066472,294.658134 C842.945758,294.412143 843.640997,294.032913 844.152211,293.52043 C844.663425,293.007948 844.919027,292.239237 844.919027,291.214274 C844.919027,290.312305 844.704321,289.574343 844.274902,289.000363 C843.845482,288.426383 843.313829,287.985656 842.679924,287.678167 C842.04602,287.370678 841.340556,287.165688 840.563512,287.063192 C839.786468,286.960695 839.050332,286.909448 838.355082,286.909448 C836.392022,286.909448 834.776613,287.319427 833.508805,288.139398 C832.240996,288.959369 831.525308,290.230304 831.36172,291.952244 L824.368357,291.952244 C824.491048,289.902316 824.981806,288.200902 825.840644,286.84795 C826.699482,285.494998 827.793463,284.408553 829.122617,283.588582 C830.451771,282.768611 831.954716,282.19464 833.631495,281.866652 C835.308274,281.538663 837.025925,281.374672 838.784499,281.374672 C840.338588,281.374672 841.872204,281.538663 843.385395,281.866652 C844.898586,282.19464 846.258393,282.727613 847.464856,283.465587 C848.67132,284.203561 849.64261,285.156763 850.378757,286.325221 C851.114905,287.493679 851.482973,288.918358 851.482973,290.599299 L851.482973,306.957637 Z M844.48961,298.101995 C843.426286,298.79897 842.117601,299.219199 840.563512,299.362694 C839.009423,299.506189 837.455359,299.721429 835.901271,300.008418 C835.165123,300.131413 834.449435,300.305655 833.754186,300.531147 C833.058936,300.756639 832.445488,301.064123 831.913827,301.453609 C831.382166,301.843095 830.962977,302.35557 830.656249,302.991047 C830.349521,303.626525 830.196159,304.395236 830.196159,305.297204 C830.196159,306.076176 830.42109,306.732144 830.870957,307.265124 C831.320825,307.798105 831.862703,308.218335 832.496607,308.525823 C833.130512,308.833312 833.825751,309.048552 834.582347,309.171547 C835.338943,309.294542 836.023959,309.35604 836.637414,309.35604 C837.414458,309.35604 838.252835,309.253544 839.152571,309.048552 C840.052306,308.84356 840.900907,308.495077 841.6984,308.003095 C842.495892,307.511112 843.16046,306.885894 843.692122,306.12742 C844.223783,305.368947 844.48961,304.436244 844.48961,303.329284 L844.48961,298.101995 Z M859.212478,270.120627 L866.205841,270.120627 L866.205841,314.029851 L859.212478,314.029851 L859.212478,270.120627 Z M887.738035,282.235637 L892.952384,282.235637 L892.952384,279.591244 C892.952384,277.582315 893.197762,275.952647 893.688527,274.702192 C894.179292,273.451736 894.833635,272.488285 895.651576,271.811808 C896.469518,271.135332 897.399912,270.684355 898.442787,270.458863 C899.485662,270.233371 900.579641,270.120627 901.724759,270.120627 C903.974098,270.120627 905.609956,270.26412 906.632382,270.551109 L906.632382,276.024388 C906.182515,275.901393 905.701982,275.809147 905.190768,275.747649 C904.679554,275.686152 904.076332,275.655403 903.381082,275.655403 C902.44045,275.655403 901.632745,275.880892 900.957943,276.331876 C900.283141,276.782859 899.945746,277.664315 899.945746,278.976269 L899.945746,282.235637 L905.896239,282.235637 L905.896239,287.462925 L899.945746,287.462925 L899.945746,314.029851 L892.952384,314.029851 L892.952384,287.462925 L887.738035,287.462925 L887.738035,282.235637 Z M910.190409,282.235637 L916.754354,282.235637 L916.754354,288.385388 L916.877044,288.385388 C917.081529,287.524419 917.48027,286.683961 918.073277,285.86399 C918.666285,285.044019 919.381972,284.295807 920.220362,283.619331 C921.058753,282.942854 921.989147,282.399632 923.011573,281.989647 C924.033999,281.579661 925.076858,281.374672 926.140182,281.374672 C926.958124,281.374672 927.52045,281.395171 927.827177,281.436169 C928.133905,281.477167 928.450853,281.518166 928.778029,281.559164 L928.778029,288.323891 C928.287264,288.241893 927.786284,288.170147 927.27507,288.108649 C926.763856,288.047152 926.262875,288.016403 925.77211,288.016403 C924.586096,288.016403 923.471668,288.252141 922.428793,288.723624 C921.385918,289.195107 920.475971,289.892072 919.698927,290.81454 C918.921884,291.737008 918.308436,292.8747 917.858569,294.227652 C917.408702,295.580604 917.183771,297.138525 917.183771,298.901463 L917.183771,314.029851 L910.190409,314.029851 L910.190409,282.235637 Z M952.457309,295.334607 C952.375515,294.227647 952.14036,293.1617 951.751838,292.136736 C951.363316,291.111773 950.831663,290.220068 950.156861,289.461595 C949.482059,288.703121 948.66413,288.088152 947.703049,287.616669 C946.741968,287.145186 945.668436,286.909448 944.482422,286.909448 C943.25551,286.909448 942.141083,287.124686 941.139104,287.555172 C940.137125,287.985657 939.2783,288.580126 938.562602,289.3386 C937.846904,290.097073 937.274354,290.988778 936.844934,292.013741 C936.415515,293.038705 936.18036,294.145649 936.139463,295.334607 L952.457309,295.334607 Z M936.139463,299.94692 C936.139463,301.176877 936.313273,302.365816 936.660898,303.513776 C937.008524,304.661736 937.529953,305.666185 938.225203,306.527154 C938.920453,307.388123 939.799726,308.074839 940.86305,308.587321 C941.926374,309.099803 943.194163,309.35604 944.666458,309.35604 C946.71131,309.35604 948.357393,308.915312 949.604753,308.033843 C950.852113,307.152375 951.782508,305.830191 952.395963,304.067254 L959.021254,304.067254 C958.653181,305.789193 958.019286,307.326615 957.11955,308.679567 C956.219815,310.032519 955.136059,311.170211 953.86825,312.092679 C952.600442,313.015147 951.179289,313.712111 949.604753,314.183595 C948.030217,314.655078 946.384135,314.890816 944.666458,314.890816 C942.171737,314.890816 939.963329,314.480837 938.041167,313.660866 C936.119005,312.840894 934.493371,311.692953 933.164217,310.217005 C931.835063,308.741057 930.8331,306.978147 930.158298,304.928219 C929.483496,302.878292 929.146101,300.623405 929.146101,298.163493 C929.146101,295.908572 929.503945,293.766431 930.219644,291.737002 C930.935342,289.707574 931.957754,287.924165 933.286908,286.386719 C934.616062,284.849273 936.221247,283.629585 938.102512,282.727617 C939.983778,281.825649 942.110393,281.374672 944.482422,281.374672 C946.977143,281.374672 949.216223,281.897395 951.19973,282.942858 C953.183237,283.988321 954.829319,285.372001 956.138026,287.09394 C957.446732,288.81588 958.397573,290.79403 958.990581,293.02845 C959.583589,295.262871 959.73695,297.569005 959.450671,299.94692 L936.139463,299.94692 Z M964.971746,270.120627 L971.965109,270.120627 L971.965109,276.762358 L964.971746,276.762358 L964.971746,270.120627 Z M964.971746,282.235637 L971.965109,282.235637 L971.965109,314.029851 L964.971746,314.029851 L964.971746,282.235637 Z M1008.89497,312.369418 C1008.89497,317.166247 1007.55561,320.743317 1004.87685,323.100734 C1002.1981,325.458151 998.343605,326.636841 993.313267,326.636841 C991.718282,326.636841 990.113097,326.472849 988.497663,326.144861 C986.882228,325.816872 985.409956,325.2634 984.080802,324.484428 C982.751648,323.705456 981.63722,322.680507 980.737484,321.409552 C979.837749,320.138598 979.306095,318.580676 979.142507,316.735741 L986.135869,316.735741 C986.340354,317.719707 986.687974,318.519167 987.178739,319.134144 C987.669504,319.749122 988.252278,320.230848 988.92708,320.579336 C989.601882,320.927824 990.348241,321.153312 991.166182,321.255808 C991.984124,321.358305 992.842949,321.409552 993.742684,321.409552 C996.564582,321.409552 998.629852,320.712588 999.938558,319.318637 C1001.24726,317.924686 1001.90161,315.915787 1001.90161,313.291881 L1001.90161,308.433577 L1001.77892,308.433577 C1000.79739,310.196515 999.458029,311.569945 997.7608,312.55391 C996.063572,313.537876 994.233457,314.029851 992.270397,314.029851 C989.73478,314.029851 987.577492,313.589123 985.79847,312.707654 C984.019448,311.826186 982.547175,310.616747 981.38161,309.079301 C980.216044,307.541855 979.367442,305.768695 978.83578,303.759766 C978.304119,301.750837 978.038292,299.598445 978.038292,297.302527 C978.038292,295.170604 978.365463,293.141205 979.019816,291.214274 C979.674169,289.287342 980.614787,287.596177 981.841699,286.140729 C983.068612,284.68528 984.571555,283.527089 986.350578,282.666119 C988.1296,281.80515 990.14375,281.374672 992.393088,281.374672 C994.397044,281.374672 996.237384,281.7949 997.914164,282.635371 C999.590943,283.475841 1000.87918,284.798024 1001.77892,286.60196 L1001.90161,286.60196 L1001.90161,282.235637 L1008.89497,282.235637 L1008.89497,312.369418 Z M993.374613,308.495075 C994.928701,308.495075 996.247612,308.177341 997.331383,307.541863 C998.415155,306.906386 999.294428,306.065928 999.969231,305.020465 C1000.64403,303.975002 1001.13479,302.786062 1001.44152,301.453609 C1001.74825,300.121157 1001.90161,298.778474 1001.90161,297.425522 C1001.90161,296.072571 1001.73802,294.760636 1001.41084,293.489682 C1001.08367,292.218727 1000.58269,291.091284 999.907885,290.107318 C999.233083,289.123353 998.35381,288.344393 997.270038,287.770413 C996.186267,287.196433 994.887804,286.909448 993.374613,286.909448 C991.820524,286.909448 990.511838,287.237431 989.448514,287.893408 C988.385191,288.549385 987.526366,289.400092 986.872013,290.445555 C986.217659,291.491018 985.74735,292.679958 985.461071,294.01241 C985.174792,295.344863 985.031654,296.667046 985.031654,297.979 C985.031654,299.290954 985.19524,300.572139 985.522416,301.822595 C985.849593,303.07305 986.350574,304.190244 987.025376,305.174209 C987.700178,306.158174 988.559003,306.957634 989.601878,307.572612 C990.644753,308.18759 991.902318,308.495075 993.374613,308.495075 L993.374613,308.495075 Z M1015.94968,270.120627 L1022.94304,270.120627 L1022.94304,286.417468 L1023.06573,286.417468 C1023.92457,284.982519 1025.20258,283.783329 1026.89981,282.819863 C1028.59704,281.856397 1030.4885,281.374672 1032.57425,281.374672 C1036.0505,281.374672 1038.79056,282.276626 1040.79452,284.080562 C1042.79847,285.884499 1043.80044,288.590362 1043.80044,292.198234 L1043.80044,314.029851 L1036.80707,314.029851 L1036.80707,294.043159 C1036.72528,291.542248 1036.19363,289.728089 1035.2121,288.600629 C1034.23057,287.473169 1032.69695,286.909448 1030.6112,286.909448 C1029.42519,286.909448 1028.36188,287.124686 1027.42124,287.555172 C1026.48061,287.985657 1025.68313,288.580126 1025.02878,289.3386 C1024.37443,290.097073 1023.86322,290.988778 1023.49515,292.013741 C1023.12707,293.038705 1022.94304,294.12515 1022.94304,295.273109 L1022.94304,314.029851 L1015.94968,314.029851 L1015.94968,270.120627 Z M1047.97191,282.235637 L1053.24761,282.235637 L1053.24761,272.703522 L1060.24097,272.703522 L1060.24097,282.235637 L1066.55954,282.235637 L1066.55954,287.462925 L1060.24097,287.462925 L1060.24097,304.436239 C1060.24097,305.174213 1060.27164,305.809681 1060.33299,306.342662 C1060.39433,306.875642 1060.53747,307.326621 1060.76241,307.695607 C1060.98734,308.064593 1061.32474,308.34133 1061.7746,308.525823 C1062.22447,308.710317 1062.83792,308.802562 1063.61496,308.802562 C1064.10573,308.802562 1064.59648,308.792313 1065.08725,308.771813 C1065.57801,308.751314 1066.06877,308.679567 1066.55954,308.556572 L1066.55954,313.968353 C1065.78249,314.05035 1065.02591,314.132346 1064.28976,314.214343 C1063.55361,314.29634 1062.79703,314.337338 1062.01998,314.337338 C1060.17962,314.337338 1058.69712,314.163098 1057.57245,313.814609 C1056.44778,313.466121 1055.56851,312.953648 1054.9346,312.277172 C1054.3007,311.600695 1053.87129,310.749988 1053.64635,309.725025 C1053.42142,308.700062 1053.28851,307.531621 1053.24761,306.219667 L1053.24761,287.462925 L1047.97191,287.462925 L1047.97191,282.235637 Z M1072.14196,305.727687 L1080.66895,305.727687 L1080.66895,314.029851 L1072.14196,314.029851 L1072.14196,305.727687 Z" id="Blockchain-solutions"></path>
                </g>
            </g>
            <g id="Group-3">
                <path d="M817.042932,448.028439 L517.571894,519.990771 L517.571894,6.21047978 L817.042932,60.7881295 L817.042932,448.028439 Z M511.968558,518.347849 L5.59173472,381.763901 L5.59173472,95.2195887 L511.968558,6.21047978 L511.968558,518.347849 Z M517.571894,0.489381146 L514.787628,0 L511.968558,0.489381146 L0,90.52386 L0,386.075116 L511.968558,524.150511 L514.021955,524.721456 L517.061445,525.537091 C517.084647,525.676914 517.119451,525.793433 517.142653,525.886649 L822.646268,452.444521 L822.646268,56.0924009 L517.571894,0.489381146 Z" id="Fill-17"></path>
                <path d="M539.835025,458.272327 L664.326529,434.35091 L664.326529,463.573956 L539.835025,492.750394 L539.835025,458.272327 Z M539.835025,349.256851 L664.326529,337.057278 L664.326529,428.664767 L539.835025,452.56288 L539.835025,349.256851 Z M539.835025,322.760357 L664.326529,315.466248 L664.326529,331.382787 L539.835025,343.628967 L539.835025,322.760357 Z M539.835025,210.936765 L664.326529,210.936765 L664.326529,309.815061 L539.835025,317.10917 L539.835025,210.936765 Z M539.835025,184.090714 L664.326529,185.372426 L664.326529,205.308882 L539.835025,205.308882 L539.835025,184.090714 Z M539.835025,71.7427851 L664.326529,86.0513576 L664.326529,179.756195 L539.835025,178.451179 L539.835025,71.7427851 Z M539.835025,42.9741648 L664.326529,60.3005878 L664.326529,80.3885186 L539.835025,66.10325 L539.835025,42.9741648 Z M669.929865,433.32554 L669.929865,427.59279 L669.929865,336.532941 L669.929865,330.85845 L669.929865,315.11669 L669.929865,309.465503 L669.929865,210.936765 L669.929865,205.308882 L669.929865,185.442338 L669.929865,179.826107 L669.929865,86.6922139 L669.929865,81.0293749 L669.929865,61.0812672 L678.247861,62.2348085 L678.247861,81.9848333 L678.247861,87.6476723 L678.247861,179.90767 L678.247861,185.51225 L678.247861,205.308882 L678.247861,210.936765 L678.247861,308.987773 L678.247861,314.650612 L678.247861,330.042815 L678.247861,335.68235 L678.247861,425.984823 L678.247861,431.717574 L678.247861,460.346371 L669.929865,462.280591 L669.929865,433.32554 Z M683.839595,430.645596 L683.839595,424.912845 L683.839595,335.146361 L683.839595,329.47187 L683.839595,314.312706 L683.839595,308.673171 L683.839595,210.936765 L683.839595,205.308882 L683.839595,185.582161 L683.839595,179.96593 L683.839595,88.2885286 L683.839595,82.6256896 L683.839595,63.003836 L693.306101,64.3321563 L693.306101,83.7093193 L693.306101,89.3721582 L693.306101,180.047493 L693.306101,185.675377 L693.306101,205.308882 L693.306101,210.936765 L693.306101,308.12553 L693.306101,313.765066 L693.306101,328.563019 L693.306101,334.225858 L693.306101,423.083492 L693.306101,428.827894 L693.306101,456.769228 L683.839595,458.983095 L683.839595,430.645596 Z M698.909436,427.732613 L801.382036,408.064152 L801.382036,431.484535 L698.909436,455.499167 L698.909436,427.732613 Z M698.909436,333.689869 L801.382036,323.575992 L801.382036,402.331401 L698.909436,422.023166 L698.909436,333.689869 Z M698.909436,313.438811 L801.382036,307.426415 L801.382036,317.948109 L698.909436,328.015378 L698.909436,313.438811 Z M698.909436,210.936765 L801.382036,210.936765 L801.382036,301.775227 L698.909436,307.775972 L698.909436,210.936765 Z M698.909436,185.733636 L801.382036,186.817266 L801.382036,205.308882 L698.909436,205.308882 L698.909436,185.733636 Z M698.909436,90.0246664 L801.382036,101.769814 L801.382036,181.189383 L698.909436,180.094101 L698.909436,90.0246664 Z M698.909436,65.0895319 L801.382036,79.3514967 L801.382036,96.1302788 L698.909436,84.3501755 L698.909436,65.0895319 Z M669.929865,468.036646 L678.247861,466.102425 L683.839595,464.785757 L806.97377,435.970529 L806.97377,323.063307 L806.97377,317.400468 L806.97377,74.4576852 L534.254891,36.5306464 L534.254891,499.84642 L664.349732,469.353314 L669.929865,468.036646 Z" id="Fill-18"></path>
                <path d="M310.957364,67.1850402 L340.505389,62.8039137 L340.505389,447.306019 L310.957364,439.429313 L310.957364,67.1850402 Z M305.365629,437.926214 L271.478788,428.942574 L271.478788,73.0110062 L305.365629,68.0006754 L305.365629,437.926214 Z M265.887054,427.439475 L228.949121,417.628548 L228.949121,79.3496572 L265.887054,73.8732492 L265.887054,427.439475 Z M223.357387,416.125449 L196.117982,408.866295 L196.117982,84.185209 L223.357387,80.1652925 L223.357387,416.125449 Z M190.526247,407.3865 L163.15923,400.127346 L163.15923,89.0906724 L190.526247,85.0358001 L190.526247,407.3865 Z M157.532692,398.600943 L135.362972,392.705066 L135.362972,93.1805006 L157.532692,89.9179596 L157.532692,398.600943 Z M129.759636,391.22527 L108.239578,385.504172 L108.239578,97.223721 L129.759636,94.0427435 L129.759636,391.22527 Z M102.624641,384.001072 L85.1185672,379.316996 L85.1185672,100.637737 L102.624641,98.0510081 L102.624641,384.001072 Z M79.5384335,377.860504 L59.6541321,372.582179 L59.6541321,104.424615 L79.5384335,101.465024 L79.5384335,377.860504 Z M54.0507962,371.07908 L40.767526,367.548544 L40.767526,107.209427 L54.0507962,105.24025 L54.0507962,371.07908 Z M35.1873924,366.068749 L25.0480228,363.365501 L25.0480228,109.551465 L35.1873924,108.060018 L35.1873924,366.068749 Z M346.120326,61.9533227 L379.032673,57.0711631 L379.032673,457.524764 L346.120326,448.785815 L346.120326,61.9533227 Z M384.612807,56.2671798 L419.856977,51.0471143 L419.856977,468.430972 L384.612807,459.051167 L384.612807,56.2671798 Z M425.460313,50.2081752 L458.859907,45.267756 L458.859907,478.777888 L425.460313,469.910767 L425.460313,50.2081752 Z M464.440041,44.4404688 L484.451954,41.4692261 L484.451954,485.559312 L464.440041,480.234379 L464.440041,44.4404688 Z M344.043727,454.040836 L486.551755,491.956223 L490.05529,492.888377 L490.05529,34.9557961 L464.440041,38.754326 L458.859907,39.5932651 L425.460313,44.5336843 L419.88018,45.3493195 L384.624408,50.581037 L379.032673,51.3966722 L346.143528,56.2904837 L340.528591,57.1294228 L310.957364,61.5105493 L305.365629,62.3261845 L271.478788,67.3598191 L265.887054,68.1987582 L228.960722,73.6868182 L223.357387,74.4908016 L196.152785,78.534022 L190.526247,79.384613 L163.15923,83.4278334 L157.555894,84.2551206 L135.362972,87.5409654 L129.771237,88.3915565 L105.733739,91.9337438 L102.647843,91.9337438 L102.647843,92.411473 L21.8577177,104.378007 L19.456288,104.739217 L19.456288,367.734975 L340.528591,453.178593 L344.043727,454.040836 Z" id="Fill-19"></path>
            </g>
        </g>
    </g>
</svg>